<svg xmlns="http://www.w3.org/2000/svg" xmlns:xlink="http://www.w3.org/1999/xlink" width="393" height="561" viewBox="0 0 393 561">
  <defs>
    <clipPath id="clip-path">
      <rect id="Rectangle_100" data-name="Rectangle 100" width="17.422" height="17.348" fill="#ed3a72"/>
    </clipPath>
    <clipPath id="clip-path-2">
      <rect id="Rectangle_122" data-name="Rectangle 122" width="393" height="561" transform="translate(0 1820)" fill="#fff" stroke="#707070" stroke-width="1"/>
    </clipPath>
    <clipPath id="clip-path-3">
      <rect id="Rectangle_27" data-name="Rectangle 27" width="440.199" height="293.434" fill="#ffe403" stroke="#eb506c" stroke-width="4"/>
    </clipPath>
    <clipPath id="clip-path-5">
      <rect id="Rectangle_29" data-name="Rectangle 29" width="440.199" height="293.434" fill="#fef587" stroke="#eb506c" stroke-width="4"/>
    </clipPath>
    <clipPath id="clip-path-10">
      <rect id="Rectangle_100-2" data-name="Rectangle 100" width="20.777" height="20.689"/>
    </clipPath>
    <clipPath id="clip-path-11">
      <rect id="Rectangle_101" data-name="Rectangle 101" width="93.41" height="6.53" transform="translate(0 0)"/>
    </clipPath>
  </defs>
  <g id="Group_255" data-name="Group 255" transform="translate(0 -1820)">
    <g id="Group_178" data-name="Group 178" transform="translate(276.507 2220) rotate(-137)">
      <g id="Group_173" data-name="Group 173" clip-path="url(#clip-path)">
        <path id="Path_3936" data-name="Path 3936" d="M11.01,8.157a2.993,2.993,0,0,1-2.3,1,2.927,2.927,0,0,1-2.273-.981.929.929,0,0,0-.134.28A19.958,19.958,0,0,1,4.539,12.1,3.934,3.934,0,0,1,2.48,13.779a2.663,2.663,0,0,1-1.315.145A1.349,1.349,0,0,1,.012,12.367,3.821,3.821,0,0,1,.8,10.577,18.283,18.283,0,0,1,4.111,7.252q.653-.539,1.347-1.025a.378.378,0,0,0,.181-.3A2.673,2.673,0,0,1,6.8,3.948c.125-.09.15-.147.062-.288A1.421,1.421,0,0,1,7.3,1.6a.219.219,0,0,0,.108-.276A.889.889,0,0,0,6.531.537,4.442,4.442,0,0,0,5.891.5a.359.359,0,0,1-.234-.07A.218.218,0,0,1,5.568.2a.242.242,0,0,1,.2-.18,1.1,1.1,0,0,1,.494.031,4.849,4.849,0,0,1,1.05.388A.64.64,0,0,1,7.66.841c.038.125.083.248.12.373.03.1.086.127.186.088a2.188,2.188,0,0,1,1.518,0c.106.036.159.014.173-.094a1.128,1.128,0,0,1,.913-.967,5.051,5.051,0,0,1,.805-.222,1.139,1.139,0,0,1,.248-.01c.145.012.254.077.253.242A.242.242,0,0,1,11.63.5c-.2.018-.4.018-.6.03A1.674,1.674,0,0,0,10.8.56.879.879,0,0,0,10,1.415a.094.094,0,0,0,.04.105l.089.06a1.455,1.455,0,0,1,.436,2.1c-.072.115-.072.166.043.247a2.632,2.632,0,0,1,1.183,2.057c.009.141.1.193.19.256a27.506,27.506,0,0,1,3.063,2.556,12.215,12.215,0,0,1,1.688,1.928,3.552,3.552,0,0,1,.683,1.7,1.346,1.346,0,0,1-1.33,1.523,3.391,3.391,0,0,1-2.572-1.07,7.493,7.493,0,0,1-1.354-2.061,25.551,25.551,0,0,1-1.07-2.466c-.023-.06-.05-.119-.08-.191" transform="translate(0 0)" fill="#ed3a72"/>
        <path id="Path_3937" data-name="Path 3937" d="M336.29,775.378a8.3,8.3,0,0,1-3.154-.582.323.323,0,0,1-.231-.277,3.124,3.124,0,0,1,.066-1.463c.041-.129.079-.134.191-.08a7.465,7.465,0,0,0,5.653.3,3.569,3.569,0,0,0,.714-.32c.07-.04.1-.037.123.044a3.016,3.016,0,0,1,.039,1.653c-.026.105-.108.116-.182.145a8.429,8.429,0,0,1-3.221.577" transform="translate(-327.601 -760.743)" fill="#ed3a72"/>
        <path id="Path_3938" data-name="Path 3938" d="M384.085,621.469a6.227,6.227,0,0,1-2.42-.479c-.137-.058-.179-.106-.088-.249a5.4,5.4,0,0,0,.48-.953c.052-.135.11-.13.223-.085a5.124,5.124,0,0,0,3.956-.02c.089-.036.123-.024.156.064a5,5,0,0,0,.538,1.062c.087.126-.016.136-.086.167a6.656,6.656,0,0,1-2.76.493" transform="translate(-375.512 -609.892)" fill="#ed3a72"/>
        <path id="Path_3939" data-name="Path 3939" d="M392.29,987.3a4.47,4.47,0,0,1-.74.865,3.885,3.885,0,0,1-1.776.9.617.617,0,0,1-.281,0,3.845,3.845,0,0,1-2.454-1.7.187.187,0,0,1-.014-.049,7.593,7.593,0,0,0,5.266-.014" transform="translate(-380.92 -971.728)" fill="#ed3a72"/>
      </g>
    </g>
    <g id="Mask_Group_11" data-name="Mask Group 11" clip-path="url(#clip-path-2)">
      <g id="Group_254" data-name="Group 254" transform="translate(0 -1)">
        <path id="Path_199" data-name="Path 199" d="M0,0H393V294.924H0Z" transform="translate(0 2086.1)" fill="#ed3a72"/>
        <g id="Group_208" data-name="Group 208" transform="translate(242.26 2553.989) rotate(-120)">
          <path id="Path_71" data-name="Path 71" d="M743.975,246.939h-67.62L642.546,305.5l33.809,58.56h67.62l33.81-58.56Z" transform="translate(-337.86 -129.844)" fill="#ffe403" stroke="#eb506c" stroke-width="4"/>
          <path id="Path_75" data-name="Path 75" d="M528.979,370.014h-67.62l-33.809,58.56,33.809,58.56h67.62l33.81-58.56Z" transform="translate(-224.812 -194.559)" fill="#ffe403" stroke="#eb506c" stroke-width="4"/>
          <g id="Group_36" data-name="Group 36">
            <g id="Group_35" data-name="Group 35" clip-path="url(#clip-path-3)">
              <path id="Path_76" data-name="Path 76" d="M528.979,370.014h-67.62l-33.809,58.56,33.809,58.56h67.62l33.81-58.56Z" transform="translate(-224.812 -194.559)" fill="#fef587" stroke="#eb506c" stroke-miterlimit="10" stroke-width="4"/>
            </g>
          </g>
          <path id="Path_77" data-name="Path 77" d="M314.732,247.531h-67.62L213.3,306.092l33.809,58.56h67.62l33.81-58.56Z" transform="translate(-112.158 -130.156)" fill="#ffe403" stroke="#eb506c" stroke-width="4"/>
          <g id="Group_38" data-name="Group 38" transform="translate(101.421 58.16)">
            <g id="Group_37" data-name="Group 37" clip-path="url(#clip-path-5)">
              <path id="Path_80" data-name="Path 80" d="M102.007,371.324H34.387L.578,429.884l33.809,58.56h67.62l33.81-58.56Z" transform="translate(-0.304 -195.247)" fill="#fef587" stroke="#eb506c" stroke-miterlimit="10" stroke-width="4"/>
            </g>
          </g>
          <path id="Path_81" data-name="Path 81" d="M742.588.5Z" transform="translate(-337.131 -0.263)" fill="#ffe403" stroke="#eb506c" stroke-width="4"/>
        </g>
        <g id="Group_41" data-name="Group 41" transform="translate(39 1851.383)">
          <path id="Path_71-2" data-name="Path 71" d="M743.975,246.939h-67.62L642.546,305.5l33.809,58.56h67.62l33.81-58.56Z" transform="translate(-337.86 -129.844)" fill="#fef587" stroke="#eb506c" stroke-width="4"/>
          <g id="Group_34-2" data-name="Group 34">
            <g id="Group_33-2" data-name="Group 33" clip-path="url(#clip-path-5)">
              <path id="Path_72" data-name="Path 72" d="M743.975,246.939h-67.62L642.546,305.5l33.809,58.56h67.62l33.81-58.56Z" transform="translate(-337.86 -129.844)" fill="#fef587" stroke="#eb506c" stroke-miterlimit="10" stroke-width="4"/>
            </g>
          </g>
          <path id="Path_73" data-name="Path 73" d="M529.615,123.854H462l-33.809,58.56L462,240.974h67.62l33.81-58.56Z" transform="translate(-225.147 -65.124)" fill="#fef587" stroke="#eb506c" stroke-width="4"/>
          <path id="Path_74" data-name="Path 74" d="M529.615,123.854H462l-33.809,58.56L462,240.974h67.62l33.81-58.56Z" transform="translate(-225.147 -65.124)" fill="#fef587" stroke="#eb506c" stroke-miterlimit="10" stroke-width="4"/>
          <path id="Path_75-2" data-name="Path 75" d="M528.979,370.014h-67.62l-33.809,58.56,33.809,58.56h67.62l33.81-58.56Z" transform="translate(-224.812 -194.559)" fill="#fef587" stroke="#eb506c" stroke-width="4"/>
          <g id="Group_36-2" data-name="Group 36">
            <g id="Group_35-2" data-name="Group 35" clip-path="url(#clip-path-5)">
              <path id="Path_76-2" data-name="Path 76" d="M528.979,370.014h-67.62l-33.809,58.56,33.809,58.56h67.62l33.81-58.56Z" transform="translate(-224.812 -194.559)" fill="#ffe403" stroke="#eb506c" stroke-miterlimit="10" stroke-width="4"/>
            </g>
          </g>
          <path id="Path_77-2" data-name="Path 77" d="M314.732,247.531h-67.62L213.3,306.092l33.809,58.56h67.62l33.81-58.56Z" transform="translate(-112.158 -130.156)" fill="#fef587" stroke="#eb506c" stroke-width="4"/>
          <path id="Path_78" data-name="Path 78" d="M314.732,247.531h-67.62L213.3,306.092l33.809,58.56h67.62l33.81-58.56Z" transform="translate(-112.158 -130.156)" fill="#ffe403" stroke="#eb506c" stroke-miterlimit="10" stroke-width="4"/>
          <path id="Path_79" data-name="Path 79" d="M34.387,371.323.577,429.884l33.81,58.56h67.619l33.81-58.56-33.81-58.56Z" transform="translate(-0.304 -195.247)" fill="#fef587" stroke="#eb506c" stroke-width="4"/>
          <g id="Group_38-2" data-name="Group 38">
            <g id="Group_37-2" data-name="Group 37" clip-path="url(#clip-path-5)">
              <path id="Path_80-2" data-name="Path 80" d="M102.007,371.324H34.387L.578,429.884l33.809,58.56h67.62l33.81-58.56Z" transform="translate(-0.304 -195.247)" fill="#fef587" stroke="#eb506c" stroke-miterlimit="10" stroke-width="4"/>
            </g>
          </g>
          <path id="Path_81-2" data-name="Path 81" d="M674.969.5l-33.81,58.56,33.81,58.56h67.619L776.4,59.06,742.588.5Z" transform="translate(-337.131 -0.263)" fill="#fef587" stroke="#eb506c" stroke-width="4"/>
          <g id="Group_40" data-name="Group 40">
            <g id="Group_39" data-name="Group 39" clip-path="url(#clip-path-5)">
              <path id="Path_82" data-name="Path 82" d="M742.589.5h-67.62L641.16,59.06l33.809,58.56h67.62L776.4,59.06Z" transform="translate(-337.131 -0.263)" fill="#ffe403" stroke="#eb506c" stroke-miterlimit="10" stroke-width="4"/>
            </g>
          </g>
        </g>
        <g id="Group_219" data-name="Group 219" transform="translate(1203.748 3253.456) rotate(-155)">
          <g id="Group_174" data-name="Group 174" transform="matrix(0.358, -0.934, 0.934, 0.358, 1560.403, 728.507)">
            <g id="Group_173-2" data-name="Group 173" clip-path="url(#clip-path-10)">
              <path id="Path_3936-2" data-name="Path 3936" d="M13.131,9.728a3.57,3.57,0,0,1-2.738,1.189A3.49,3.49,0,0,1,7.682,9.748a1.108,1.108,0,0,0-.159.334,23.8,23.8,0,0,1-2.109,4.351,4.692,4.692,0,0,1-2.456,2,3.176,3.176,0,0,1-1.569.173A1.609,1.609,0,0,1,.014,14.749a4.557,4.557,0,0,1,.94-2.134A21.8,21.8,0,0,1,4.9,8.649q.779-.643,1.607-1.222a.451.451,0,0,0,.216-.359A3.188,3.188,0,0,1,8.112,4.708c.149-.107.179-.175.074-.344A1.694,1.694,0,0,1,8.711,1.9a.261.261,0,0,0,.129-.329A1.061,1.061,0,0,0,7.789.64,5.3,5.3,0,0,0,7.026.6.428.428,0,0,1,6.747.516.26.26,0,0,1,6.641.235.289.289,0,0,1,6.88.02a1.314,1.314,0,0,1,.589.037A5.783,5.783,0,0,1,8.722.52.764.764,0,0,1,9.136,1c.045.149.1.3.143.445.036.122.1.151.222.105a2.609,2.609,0,0,1,1.811-.006c.126.042.19.017.206-.112A1.345,1.345,0,0,1,12.607.283a6.023,6.023,0,0,1,.96-.265,1.359,1.359,0,0,1,.3-.012c.173.015.3.092.3.288a.288.288,0,0,1-.295.3c-.24.022-.481.022-.721.035a2,2,0,0,0-.273.036,1.049,1.049,0,0,0-.947,1.019.112.112,0,0,0,.048.126l.106.071a1.736,1.736,0,0,1,.519,2.5c-.086.137-.086.2.051.294a3.139,3.139,0,0,1,1.41,2.453c.011.168.121.23.227.306a32.8,32.8,0,0,1,3.653,3.048,14.567,14.567,0,0,1,2.013,2.3,4.236,4.236,0,0,1,.814,2.027,1.6,1.6,0,0,1-1.586,1.816,4.044,4.044,0,0,1-3.067-1.276A8.936,8.936,0,0,1,14.5,12.9a30.472,30.472,0,0,1-1.276-2.941c-.027-.072-.059-.142-.1-.228" transform="translate(0 0)"/>
              <path id="Path_3937-2" data-name="Path 3937" d="M4.1,2.915A9.9,9.9,0,0,1,.341,2.222a.385.385,0,0,1-.275-.33A3.725,3.725,0,0,1,.145.146c.048-.154.094-.16.228-.1a8.9,8.9,0,0,0,6.741.36A4.255,4.255,0,0,0,7.966.03c.084-.048.117-.044.147.052A3.6,3.6,0,0,1,8.16,2.054c-.031.125-.129.138-.217.173A10.049,10.049,0,0,1,4.1,2.915" transform="translate(6.26 14.537)"/>
              <path id="Path_3938-2" data-name="Path 3938" d="M3.049,2.153A7.426,7.426,0,0,1,.162,1.582c-.164-.069-.213-.126-.1-.3A6.443,6.443,0,0,0,.631.148C.692-.014.762-.007.9.047A6.111,6.111,0,0,0,5.615.023c.107-.043.146-.028.186.076a5.961,5.961,0,0,0,.641,1.267c.1.151-.019.163-.1.2a7.938,7.938,0,0,1-3.292.588" transform="translate(7.176 11.655)"/>
              <path id="Path_3939-2" data-name="Path 3939" d="M6.28,0A5.326,5.326,0,0,1,5.4,1.031,4.632,4.632,0,0,1,3.279,2.1a.739.739,0,0,1-.336,0A4.586,4.586,0,0,1,.017.074.223.223,0,0,1,0,.016,9.055,9.055,0,0,0,6.28,0" transform="translate(7.279 18.569)"/>
            </g>
          </g>
          <g id="Group_176" data-name="Group 176" transform="matrix(0.951, 0.309, -0.309, 0.951, 1586.089, 727.747)">
            <g id="Group_175" data-name="Group 175" transform="translate(0 0)" clip-path="url(#clip-path-11)">
              <path id="Path_3940" data-name="Path 3940" d="M83.716,6.53a6.191,6.191,0,0,1-.647-.033A.619.619,0,1,1,83.2,5.265a5.171,5.171,0,0,0,.785.019.619.619,0,1,1,.064,1.237q-.162.008-.331.008m-73.864,0c-.171,0-.342-.007-.507-.02a.619.619,0,1,1,.1-1.235,5.248,5.248,0,0,0,.786,0,.619.619,0,0,1,.092,1.235c-.154.011-.312.017-.471.017m55.729-.01a.619.619,0,0,1-.035-1.238,4.351,4.351,0,0,0,.764-.11.619.619,0,0,1,.288,1.2,5.621,5.621,0,0,1-.98.142h-.036M27.829,6.509l-.054,0a5.47,5.47,0,0,1-.979-.174.619.619,0,0,1,.33-1.194,4.211,4.211,0,0,0,.756.134.619.619,0,0,1-.053,1.236m20.188-.122a.619.619,0,0,1-.148-1.221,3.848,3.848,0,0,0,.715-.254.619.619,0,0,1,.528,1.121,5.078,5.078,0,0,1-.946.335.614.614,0,0,1-.149.018M45.4,6.348a.621.621,0,0,1-.169-.023,5.1,5.1,0,0,1-.934-.367.619.619,0,0,1,.565-1.1,3.8,3.8,0,0,0,.706.278A.62.62,0,0,1,45.4,6.348M30.41,6.08A.62.62,0,0,1,30.142,4.9a4.239,4.239,0,0,0,.661-.4.619.619,0,1,1,.727,1,5.455,5.455,0,0,1-.853.511.615.615,0,0,1-.267.061m32.607-.069a.615.615,0,0,1-.286-.07,5.615,5.615,0,0,1-.833-.534.619.619,0,1,1,.754-.983,4.437,4.437,0,0,0,.652.419.619.619,0,0,1-.287,1.169m23.471-.329a.619.619,0,0,1-.355-1.127,5.726,5.726,0,0,0,.618-.5.619.619,0,0,1,.843.908,6.958,6.958,0,0,1-.752.611.616.616,0,0,1-.354.111M12.727,5.609A.619.619,0,0,1,12.36,4.49a6.123,6.123,0,0,0,.612-.519.619.619,0,1,1,.856.895,7.315,7.315,0,0,1-.736.623.616.616,0,0,1-.366.12M6.952,5.59a.617.617,0,0,1-.369-.122,7.432,7.432,0,0,1-.732-.626.619.619,0,1,1,.86-.892,6.229,6.229,0,0,0,.611.523.619.619,0,0,1-.37,1.117m73.763-.076a.617.617,0,0,1-.38-.13,7.917,7.917,0,0,1-.717-.635.619.619,0,1,1,.872-.88,6.706,6.706,0,0,0,.605.537.619.619,0,0,1-.38,1.108M68.73,5.1a.619.619,0,0,1-.423-1.071c.181-.17.366-.36.583-.6a.619.619,0,1,1,.916.834c-.24.263-.447.475-.652.667a.617.617,0,0,1-.423.167M24.723,4.993a.618.618,0,0,1-.431-.175c-.2-.19-.4-.4-.639-.671a.619.619,0,0,1,.922-.827c.221.247.406.441.581.61a.619.619,0,0,1-.432,1.064M50.9,4.445a.619.619,0,0,1-.458-1.036c.165-.181.326-.366.488-.551l.09-.1a.619.619,0,1,1,.933.815l-.09.1c-.167.191-.334.383-.5.57a.618.618,0,0,1-.459.2m-8.344-.113a.618.618,0,0,1-.462-.206c-.134-.149-.265-.3-.4-.451l-.191-.218a.619.619,0,1,1,.931-.817l.194.221c.128.147.257.294.387.44a.619.619,0,0,1-.461,1.032m-9.516-.573a.619.619,0,0,1-.466-1.027c.222-.254.411-.466.609-.676a.619.619,0,1,1,.9.851c-.184.195-.364.4-.576.64a.618.618,0,0,1-.467.212M60.42,3.643a.618.618,0,0,1-.465-.21c-.168-.191-.367-.415-.577-.631a.619.619,0,0,1,.889-.862c.228.235.44.473.618.675a.619.619,0,0,1-.465,1.028m28.549-.471a.619.619,0,0,1-.453-1.042c.238-.255.457-.472.669-.661a.619.619,0,0,1,.826.923c-.184.165-.376.355-.589.583a.618.618,0,0,1-.453.2M15.191,3.079a.619.619,0,0,1-.449-1.046c.24-.252.462-.467.681-.656a.619.619,0,1,1,.81.937c-.187.162-.381.349-.592.571a.617.617,0,0,1-.449.193m-10.7-.023a.617.617,0,0,1-.448-.192A8.146,8.146,0,0,0,3.449,2.3a.619.619,0,1,1,.805-.941,9.375,9.375,0,0,1,.684.654.619.619,0,0,1-.448,1.047m73.776-.09a.618.618,0,0,1-.443-.187,7.441,7.441,0,0,0-.6-.555.619.619,0,1,1,.787-.956,8.71,8.71,0,0,1,.7.647.619.619,0,0,1-.443,1.052m-7.112-.439a.619.619,0,0,1-.411-1.083A6.478,6.478,0,0,1,71.518.85a.619.619,0,0,1,.675,1.039,5.253,5.253,0,0,0-.627.482.618.618,0,0,1-.411.156m-48.863-.1a.617.617,0,0,1-.4-.147,4.9,4.9,0,0,0-.635-.461A.619.619,0,0,1,21.9.756a6.118,6.118,0,0,1,.794.576.619.619,0,0,1-.4,1.092m31.124-.452A.619.619,0,0,1,53.082.83a5.267,5.267,0,0,1,.889-.458.619.619,0,0,1,.458,1.151,3.953,3.953,0,0,0-.679.35.616.616,0,0,1-.333.1m-13.4-.08A.617.617,0,0,1,39.7,1.8a3.882,3.882,0,0,0-.688-.326A.619.619,0,0,1,39.43.311a5.17,5.17,0,0,1,.9.428.619.619,0,0,1-.318,1.151m-4.255-.335a.619.619,0,0,1-.225-1.2A5.178,5.178,0,0,1,36.5.09a.619.619,0,0,1,.218,1.219,3.922,3.922,0,0,0-.732.2.618.618,0,0,1-.225.042m21.9-.053a.619.619,0,0,1-.2-.035,4,4,0,0,0-.741-.181.619.619,0,0,1,.18-1.226A5.257,5.257,0,0,1,57.863.3a.619.619,0,0,1-.2,1.2m34.256-.166A.619.619,0,0,1,91.793.111,5.813,5.813,0,0,1,92.774,0a.619.619,0,1,1,.033,1.238,4.569,4.569,0,0,0-.771.084.623.623,0,0,1-.122.012M18.174,1.314a.619.619,0,0,1-.1-1.23A5.964,5.964,0,0,1,19.049,0a.619.619,0,1,1,.006,1.239,4.721,4.721,0,0,0-.776.066.614.614,0,0,1-.106.009M1.5,1.309A.629.629,0,0,1,1.4,1.3a4.77,4.77,0,0,0-.777-.061A.619.619,0,0,1,.619,0,6,6,0,0,1,1.6.078a.619.619,0,0,1-.1,1.23m73.74-.019a.616.616,0,0,1-.087-.006,5.032,5.032,0,0,0-.781-.044A.619.619,0,1,1,74.344,0a6.255,6.255,0,0,1,.979.055.619.619,0,0,1-.085,1.233" transform="translate(0 0)"/>
            </g>
          </g>
          <g id="Group_177" data-name="Group 177" transform="matrix(0.951, 0.309, -0.309, 0.951, 1676.146, 756.762)">
            <g id="Group_175-2" data-name="Group 175" transform="translate(0 0)" clip-path="url(#clip-path-11)">
              <path id="Path_3940-2" data-name="Path 3940" d="M83.716,6.53a6.191,6.191,0,0,1-.647-.033A.619.619,0,1,1,83.2,5.265a5.171,5.171,0,0,0,.785.019.619.619,0,1,1,.064,1.237q-.162.008-.331.008m-73.864,0c-.171,0-.342-.007-.507-.02a.619.619,0,1,1,.1-1.235,5.248,5.248,0,0,0,.786,0,.619.619,0,0,1,.092,1.235c-.154.011-.312.017-.471.017m55.729-.01a.619.619,0,0,1-.035-1.238,4.351,4.351,0,0,0,.764-.11.619.619,0,0,1,.288,1.2,5.621,5.621,0,0,1-.98.142h-.036M27.829,6.509l-.054,0a5.47,5.47,0,0,1-.979-.174.619.619,0,0,1,.33-1.194,4.211,4.211,0,0,0,.756.134.619.619,0,0,1-.053,1.236m20.188-.122a.619.619,0,0,1-.148-1.221,3.848,3.848,0,0,0,.715-.254.619.619,0,0,1,.528,1.121,5.078,5.078,0,0,1-.946.335.614.614,0,0,1-.149.018M45.4,6.348a.621.621,0,0,1-.169-.023,5.1,5.1,0,0,1-.934-.367.619.619,0,0,1,.565-1.1,3.8,3.8,0,0,0,.706.278A.62.62,0,0,1,45.4,6.348M30.41,6.08A.62.62,0,0,1,30.142,4.9a4.239,4.239,0,0,0,.661-.4.619.619,0,1,1,.727,1,5.455,5.455,0,0,1-.853.511.615.615,0,0,1-.267.061m32.607-.069a.615.615,0,0,1-.286-.07,5.615,5.615,0,0,1-.833-.534.619.619,0,1,1,.754-.983,4.437,4.437,0,0,0,.652.419.619.619,0,0,1-.287,1.169m23.471-.329a.619.619,0,0,1-.355-1.127,5.726,5.726,0,0,0,.618-.5.619.619,0,0,1,.843.908,6.958,6.958,0,0,1-.752.611.616.616,0,0,1-.354.111M12.727,5.609A.619.619,0,0,1,12.36,4.49a6.123,6.123,0,0,0,.612-.519.619.619,0,1,1,.856.895,7.315,7.315,0,0,1-.736.623.616.616,0,0,1-.366.12M6.952,5.59a.617.617,0,0,1-.369-.122,7.432,7.432,0,0,1-.732-.626.619.619,0,1,1,.86-.892,6.229,6.229,0,0,0,.611.523.619.619,0,0,1-.37,1.117m73.763-.076a.617.617,0,0,1-.38-.13,7.917,7.917,0,0,1-.717-.635.619.619,0,1,1,.872-.88,6.706,6.706,0,0,0,.605.537.619.619,0,0,1-.38,1.108M68.73,5.1a.619.619,0,0,1-.423-1.071c.181-.17.366-.36.583-.6a.619.619,0,1,1,.916.834c-.24.263-.447.475-.652.667a.617.617,0,0,1-.423.167M24.723,4.993a.618.618,0,0,1-.431-.175c-.2-.19-.4-.4-.639-.671a.619.619,0,0,1,.922-.827c.221.247.406.441.581.61a.619.619,0,0,1-.432,1.064M50.9,4.445a.619.619,0,0,1-.458-1.036c.165-.181.326-.366.488-.551l.09-.1a.619.619,0,1,1,.933.815l-.09.1c-.167.191-.334.383-.5.57a.618.618,0,0,1-.459.2m-8.344-.113a.618.618,0,0,1-.462-.206c-.134-.149-.265-.3-.4-.451l-.191-.218a.619.619,0,1,1,.931-.817l.194.221c.128.147.257.294.387.44a.619.619,0,0,1-.461,1.032m-9.516-.573a.619.619,0,0,1-.466-1.027c.222-.254.411-.466.609-.676a.619.619,0,1,1,.9.851c-.184.195-.364.4-.576.64a.618.618,0,0,1-.467.212M60.42,3.643a.618.618,0,0,1-.465-.21c-.168-.191-.367-.415-.577-.631a.619.619,0,0,1,.889-.862c.228.235.44.473.618.675a.619.619,0,0,1-.465,1.028m28.549-.471a.619.619,0,0,1-.453-1.042c.238-.255.457-.472.669-.661a.619.619,0,0,1,.826.923c-.184.165-.376.355-.589.583a.618.618,0,0,1-.453.2M15.191,3.079a.619.619,0,0,1-.449-1.046c.24-.252.462-.467.681-.656a.619.619,0,1,1,.81.937c-.187.162-.381.349-.592.571a.617.617,0,0,1-.449.193m-10.7-.023a.617.617,0,0,1-.448-.192A8.146,8.146,0,0,0,3.449,2.3a.619.619,0,1,1,.805-.941,9.375,9.375,0,0,1,.684.654.619.619,0,0,1-.448,1.047m73.776-.09a.618.618,0,0,1-.443-.187,7.441,7.441,0,0,0-.6-.555.619.619,0,1,1,.787-.956,8.71,8.71,0,0,1,.7.647.619.619,0,0,1-.443,1.052m-7.112-.439a.619.619,0,0,1-.411-1.083A6.478,6.478,0,0,1,71.518.85a.619.619,0,0,1,.675,1.039,5.253,5.253,0,0,0-.627.482.618.618,0,0,1-.411.156m-48.863-.1a.617.617,0,0,1-.4-.147,4.9,4.9,0,0,0-.635-.461A.619.619,0,0,1,21.9.756a6.118,6.118,0,0,1,.794.576.619.619,0,0,1-.4,1.092m31.124-.452A.619.619,0,0,1,53.082.83a5.267,5.267,0,0,1,.889-.458.619.619,0,0,1,.458,1.151,3.953,3.953,0,0,0-.679.35.616.616,0,0,1-.333.1m-13.4-.08A.617.617,0,0,1,39.7,1.8a3.882,3.882,0,0,0-.688-.326A.619.619,0,0,1,39.43.311a5.17,5.17,0,0,1,.9.428.619.619,0,0,1-.318,1.151m-4.255-.335a.619.619,0,0,1-.225-1.2A5.178,5.178,0,0,1,36.5.09a.619.619,0,0,1,.218,1.219,3.922,3.922,0,0,0-.732.2.618.618,0,0,1-.225.042m21.9-.053a.619.619,0,0,1-.2-.035,4,4,0,0,0-.741-.181.619.619,0,0,1,.18-1.226A5.257,5.257,0,0,1,57.863.3a.619.619,0,0,1-.2,1.2m34.256-.166A.619.619,0,0,1,91.793.111,5.813,5.813,0,0,1,92.774,0a.619.619,0,1,1,.033,1.238,4.569,4.569,0,0,0-.771.084.623.623,0,0,1-.122.012M18.174,1.314a.619.619,0,0,1-.1-1.23A5.964,5.964,0,0,1,19.049,0a.619.619,0,1,1,.006,1.239,4.721,4.721,0,0,0-.776.066.614.614,0,0,1-.106.009M1.5,1.309A.629.629,0,0,1,1.4,1.3a4.77,4.77,0,0,0-.777-.061A.619.619,0,0,1,.619,0,6,6,0,0,1,1.6.078a.619.619,0,0,1-.1,1.23m73.74-.019a.616.616,0,0,1-.087-.006,5.032,5.032,0,0,0-.781-.044A.619.619,0,1,1,74.344,0a6.255,6.255,0,0,1,.979.055.619.619,0,0,1-.085,1.233" transform="translate(0 0)"/>
            </g>
          </g>
        </g>
      </g>
    </g>
    <g id="Group_178-2" data-name="Group 178" transform="translate(276.507 2220) rotate(-137)">
      <g id="Group_173-3" data-name="Group 173" clip-path="url(#clip-path)">
        <path id="Path_3936-3" data-name="Path 3936" d="M11.01,8.157a2.993,2.993,0,0,1-2.3,1,2.927,2.927,0,0,1-2.273-.981.929.929,0,0,0-.134.28A19.958,19.958,0,0,1,4.539,12.1,3.934,3.934,0,0,1,2.48,13.779a2.663,2.663,0,0,1-1.315.145A1.349,1.349,0,0,1,.012,12.367,3.821,3.821,0,0,1,.8,10.577,18.283,18.283,0,0,1,4.111,7.252q.653-.539,1.347-1.025a.378.378,0,0,0,.181-.3A2.673,2.673,0,0,1,6.8,3.948c.125-.09.15-.147.062-.288A1.421,1.421,0,0,1,7.3,1.6a.219.219,0,0,0,.108-.276A.889.889,0,0,0,6.531.537,4.442,4.442,0,0,0,5.891.5a.359.359,0,0,1-.234-.07A.218.218,0,0,1,5.568.2a.242.242,0,0,1,.2-.18,1.1,1.1,0,0,1,.494.031,4.849,4.849,0,0,1,1.05.388A.64.64,0,0,1,7.66.841c.038.125.083.248.12.373.03.1.086.127.186.088a2.188,2.188,0,0,1,1.518,0c.106.036.159.014.173-.094a1.128,1.128,0,0,1,.913-.967,5.051,5.051,0,0,1,.805-.222,1.139,1.139,0,0,1,.248-.01c.145.012.254.077.253.242A.242.242,0,0,1,11.63.5c-.2.018-.4.018-.6.03A1.674,1.674,0,0,0,10.8.56.879.879,0,0,0,10,1.415a.094.094,0,0,0,.04.105l.089.06a1.455,1.455,0,0,1,.436,2.1c-.072.115-.072.166.043.247a2.632,2.632,0,0,1,1.183,2.057c.009.141.1.193.19.256a27.506,27.506,0,0,1,3.063,2.556,12.215,12.215,0,0,1,1.688,1.928,3.552,3.552,0,0,1,.683,1.7,1.346,1.346,0,0,1-1.33,1.523,3.391,3.391,0,0,1-2.572-1.07,7.493,7.493,0,0,1-1.354-2.061,25.551,25.551,0,0,1-1.07-2.466c-.023-.06-.05-.119-.08-.191" transform="translate(0 0)" fill="#ed3a72"/>
        <path id="Path_3937-3" data-name="Path 3937" d="M336.29,775.378a8.3,8.3,0,0,1-3.154-.582.323.323,0,0,1-.231-.277,3.124,3.124,0,0,1,.066-1.463c.041-.129.079-.134.191-.08a7.465,7.465,0,0,0,5.653.3,3.569,3.569,0,0,0,.714-.32c.07-.04.1-.037.123.044a3.016,3.016,0,0,1,.039,1.653c-.026.105-.108.116-.182.145a8.429,8.429,0,0,1-3.221.577" transform="translate(-327.601 -760.743)" fill="#ed3a72"/>
        <path id="Path_3938-3" data-name="Path 3938" d="M384.085,621.469a6.227,6.227,0,0,1-2.42-.479c-.137-.058-.179-.106-.088-.249a5.4,5.4,0,0,0,.48-.953c.052-.135.11-.13.223-.085a5.124,5.124,0,0,0,3.956-.02c.089-.036.123-.024.156.064a5,5,0,0,0,.538,1.062c.087.126-.016.136-.086.167a6.656,6.656,0,0,1-2.76.493" transform="translate(-375.512 -609.892)" fill="#ed3a72"/>
        <path id="Path_3939-3" data-name="Path 3939" d="M392.29,987.3a4.47,4.47,0,0,1-.74.865,3.885,3.885,0,0,1-1.776.9.617.617,0,0,1-.281,0,3.845,3.845,0,0,1-2.454-1.7.187.187,0,0,1-.014-.049,7.593,7.593,0,0,0,5.266-.014" transform="translate(-380.92 -971.728)" fill="#ed3a72"/>
      </g>
    </g>
  </g>
</svg>
