<svg xmlns="http://www.w3.org/2000/svg" xmlns:xlink="http://www.w3.org/1999/xlink" width="393" height="537" viewBox="0 0 393 537">
  <defs>
    <clipPath id="clip-path">
      <rect id="Rectangle_204" data-name="Rectangle 204" width="393" height="537" transform="translate(0 1844)" fill="#fff"/>
    </clipPath>
    <clipPath id="clip-path-2">
      <rect id="Rectangle_27" data-name="Rectangle 27" width="440.199" height="293.434" fill="#ffe403" stroke="#eb506c" stroke-width="4"/>
    </clipPath>
    <clipPath id="clip-path-4">
      <rect id="Rectangle_29" data-name="Rectangle 29" width="440.199" height="293.434" fill="#fef587" stroke="#eb506c" stroke-width="4"/>
    </clipPath>
    <clipPath id="clip-path-9">
      <rect id="Rectangle_100" data-name="Rectangle 100" width="17.422" height="17.348" fill="#ed3a72"/>
    </clipPath>
    <clipPath id="clip-path-10">
      <rect id="Rectangle_100-2" data-name="Rectangle 100" width="20.777" height="20.689"/>
    </clipPath>
    <clipPath id="clip-path-11">
      <rect id="Rectangle_101" data-name="Rectangle 101" width="93.41" height="6.53" transform="translate(0 0)"/>
    </clipPath>
  </defs>
  <g id="Mask_Group_20" data-name="Mask Group 20" transform="translate(0 -1844)" clip-path="url(#clip-path)">
    <g id="Group_253" data-name="Group 253">
      <path id="Path_199" data-name="Path 199" d="M0,0H393V294.924H0Z" transform="translate(0 2086.1)" fill="#ed3a72"/>
      <g id="Group_208" data-name="Group 208" transform="translate(242.259 2553.989) rotate(-120)">
        <path id="Path_71" data-name="Path 71" d="M743.975,246.939h-67.62L642.546,305.5l33.809,58.56h67.62l33.81-58.56Z" transform="translate(-337.86 -129.844)" fill="#ffe403" stroke="#eb506c" stroke-width="4"/>
        <path id="Path_75" data-name="Path 75" d="M528.979,370.014h-67.62l-33.809,58.56,33.809,58.56h67.62l33.81-58.56Z" transform="translate(-224.812 -194.559)" fill="#ffe403" stroke="#eb506c" stroke-width="4"/>
        <g id="Group_36" data-name="Group 36">
          <g id="Group_35" data-name="Group 35" clip-path="url(#clip-path-2)">
            <path id="Path_76" data-name="Path 76" d="M528.979,370.014h-67.62l-33.809,58.56,33.809,58.56h67.62l33.81-58.56Z" transform="translate(-224.812 -194.559)" fill="#fef587" stroke="#eb506c" stroke-miterlimit="10" stroke-width="4"/>
          </g>
        </g>
        <path id="Path_77" data-name="Path 77" d="M314.732,247.531h-67.62L213.3,306.092l33.809,58.56h67.62l33.81-58.56Z" transform="translate(-112.158 -130.156)" fill="#ffe403" stroke="#eb506c" stroke-width="4"/>
        <g id="Group_38" data-name="Group 38" transform="translate(101.421 58.16)">
          <g id="Group_37" data-name="Group 37" clip-path="url(#clip-path-4)">
            <path id="Path_80" data-name="Path 80" d="M102.007,371.324H34.387L.578,429.884l33.809,58.56h67.62l33.81-58.56Z" transform="translate(-0.304 -195.247)" fill="#fef587" stroke="#eb506c" stroke-miterlimit="10" stroke-width="4"/>
          </g>
        </g>
        <path id="Path_81" data-name="Path 81" d="M742.588.5Z" transform="translate(-337.131 -0.263)" fill="#ffe403" stroke="#eb506c" stroke-width="4"/>
      </g>
      <g id="Group_41" data-name="Group 41" transform="translate(39 1851.383)">
        <path id="Path_71-2" data-name="Path 71" d="M743.975,246.939h-67.62L642.546,305.5l33.809,58.56h67.62l33.81-58.56Z" transform="translate(-337.86 -129.844)" fill="#fef587" stroke="#eb506c" stroke-width="4"/>
        <g id="Group_34-2" data-name="Group 34">
          <g id="Group_33-2" data-name="Group 33" clip-path="url(#clip-path-4)">
            <path id="Path_72" data-name="Path 72" d="M743.975,246.939h-67.62L642.546,305.5l33.809,58.56h67.62l33.81-58.56Z" transform="translate(-337.86 -129.844)" fill="#fef587" stroke="#eb506c" stroke-miterlimit="10" stroke-width="4"/>
          </g>
        </g>
        <path id="Path_73" data-name="Path 73" d="M529.615,123.854H462l-33.809,58.56L462,240.974h67.62l33.81-58.56Z" transform="translate(-225.147 -65.124)" fill="#fef587" stroke="#eb506c" stroke-width="4"/>
        <path id="Path_74" data-name="Path 74" d="M529.615,123.854H462l-33.809,58.56L462,240.974h67.62l33.81-58.56Z" transform="translate(-225.147 -65.124)" fill="#fef587" stroke="#eb506c" stroke-miterlimit="10" stroke-width="4"/>
        <path id="Path_75-2" data-name="Path 75" d="M528.979,370.014h-67.62l-33.809,58.56,33.809,58.56h67.62l33.81-58.56Z" transform="translate(-224.812 -194.559)" fill="#fef587" stroke="#eb506c" stroke-width="4"/>
        <g id="Group_36-2" data-name="Group 36">
          <g id="Group_35-2" data-name="Group 35" clip-path="url(#clip-path-4)">
            <path id="Path_76-2" data-name="Path 76" d="M528.979,370.014h-67.62l-33.809,58.56,33.809,58.56h67.62l33.81-58.56Z" transform="translate(-224.812 -194.559)" fill="#ffe403" stroke="#eb506c" stroke-miterlimit="10" stroke-width="4"/>
          </g>
        </g>
        <path id="Path_77-2" data-name="Path 77" d="M314.732,247.531h-67.62L213.3,306.092l33.809,58.56h67.62l33.81-58.56Z" transform="translate(-112.158 -130.156)" fill="#fef587" stroke="#eb506c" stroke-width="4"/>
        <path id="Path_78" data-name="Path 78" d="M314.732,247.531h-67.62L213.3,306.092l33.809,58.56h67.62l33.81-58.56Z" transform="translate(-112.158 -130.156)" fill="#ffe403" stroke="#eb506c" stroke-miterlimit="10" stroke-width="4"/>
        <path id="Path_79" data-name="Path 79" d="M34.387,371.323.577,429.884l33.81,58.56h67.619l33.81-58.56-33.81-58.56Z" transform="translate(-0.304 -195.247)" fill="#fef587" stroke="#eb506c" stroke-width="4"/>
        <g id="Group_38-2" data-name="Group 38">
          <g id="Group_37-2" data-name="Group 37" clip-path="url(#clip-path-4)">
            <path id="Path_80-2" data-name="Path 80" d="M102.007,371.324H34.387L.578,429.884l33.809,58.56h67.62l33.81-58.56Z" transform="translate(-0.304 -195.247)" fill="#fef587" stroke="#eb506c" stroke-miterlimit="10" stroke-width="4"/>
          </g>
        </g>
        <path id="Path_81-2" data-name="Path 81" d="M674.969.5l-33.81,58.56,33.81,58.56h67.619L776.4,59.06,742.588.5Z" transform="translate(-337.131 -0.263)" fill="#fef587" stroke="#eb506c" stroke-width="4"/>
        <g id="Group_40" data-name="Group 40">
          <g id="Group_39" data-name="Group 39" clip-path="url(#clip-path-4)">
            <path id="Path_82" data-name="Path 82" d="M742.589.5h-67.62L641.16,59.06l33.809,58.56h67.62L776.4,59.06Z" transform="translate(-337.131 -0.263)" fill="#ffe403" stroke="#eb506c" stroke-miterlimit="10" stroke-width="4"/>
          </g>
        </g>
      </g>
    </g>
    <path id="Path_4766" data-name="Path 4766" d="M12.4,0H24.16V-37.6H35.04V-48H1.6v10.4H12.4Zm2.96-2.24v-37.6H4.56v-5.92H32.08v5.92H21.2v37.6Zm-10-41.92H31.28v-.4H5.36Zm0,1.6H31.28v-.4H5.36Zm0,1.6H31.28v-.4H5.36ZM40.48,0H52.24V-18.96h18.8V0H82.72V-48H71.04v18.88H52.24V-48H40.48Zm2.96-2.24V-45.76h5.84v18.88H74V-45.76h5.76V-2.24H74V-21.2H49.28V-2.24Zm31.28-42.4h4.24v-.4H74.72Zm-30.48,0h4.24v-.4H44.24Zm30.48,1.6h4.24v-.4H74.72Zm-30.48,0h4.24v-.4H44.24Zm30.48,1.6h4.24v-.4H74.72Zm-30.48,0h4.24v-.4H44.24Zm30.48,1.6h4.24v-.4H74.72Zm-30.48,0h4.24v-.4H44.24Zm30.48,1.6h4.24v-.4H74.72Zm-30.48,0h4.24v-.4H44.24Zm30.48,1.6h4.24v-.4H74.72Zm-30.48,0h4.24v-.4H44.24Zm30.48,1.6h4.24v-.4H74.72Zm-30.48,0h4.24v-.4H44.24Zm30.48,1.6h4.24v-.4H74.72Zm-30.48,0h4.24v-.4H44.24Zm30.48,1.6h4.24v-.4H74.72Zm-30.48,0h4.24v-.4H44.24Zm30.48,1.6h4.24v-.4H74.72Zm-30.48,0h4.24v-.4H44.24Zm30.48,1.6h4.24v-.4H74.72Zm-30.48,0h4.24v-.4H44.24Zm30.48,1.6h4.24v-.4H74.72Zm-30.48,0h4.24v-.4H44.24Zm0,1.6H78.96v-.4H44.24Zm0,1.6H78.96v-.4H44.24Zm0,1.6H78.96v-.4H44.24ZM90.4,0h32.64V-10.08H102.16v-8.64h18.48V-28.96H102.16V-37.6h20V-48H90.4Zm2.96-2.24V-45.76H119.2v5.92h-20v13.12h18.48v5.76H99.2V-7.84h20.88v5.6Zm1.52-42H118.4v-.4H94.48Zm1.6,1.6H118.4v-.4H96.08Zm1.6,1.6H118.4v-.4H97.68ZM99.2-25.28h17.68v-.4H99.2Zm0,1.6h17.68v-.4H99.2Zm0,1.6h17.68v-.4H99.2ZM97.68-6.4h21.6v-.4H98.16Zm-1.6,1.6h23.2v-.4H96.48ZM94.4-3.2h24.88v-.4H94.8ZM3.84,90H15.52V72.72h8.4c8.88,0,15.6-6.4,15.6-15.36,0-8.08-5.76-15.36-15.6-15.36H3.84ZM6.8,87.76V44.24H24.08c8,0,12.48,6,12.48,12.88,0,7.68-5.2,13.36-12.48,13.36H12.56V87.76Zm5.84-42.24h14.8c-.8-.16-1.92-.32-2.8-.4h-12Zm0,1.6H30.72l-.56-.4H12.64Zm0,1.6h20l-.4-.4H12.64Zm-.08,16.16H23.12c4.56,0,7.12-3.28,7.12-7.68,0-4.08-2.56-7.6-7.12-7.6H12.56ZM28.08,50.32h5.84l-.32-.4H27.52Zm1.36,1.6h5.2l-.16-.4H29.2ZM15.52,62.64V52H22.8c3.12,0,4.72,2.4,4.72,5.04,0,2.8-1.68,5.6-4.72,5.6ZM30.4,53.52h4.88l-.16-.4H30.16Zm.48,1.6h4.64v-.4h-4.8Zm.16,1.6h4.64v-.4H31.04Zm-.08,1.6h4.72v-.16l.08-.24H31.04Zm-.24,1.6h4.72l.16-.4H30.8Zm-.64,1.6h4.96l.16-.4H30.32Zm-1.04,1.6H34.4l.24-.4H29.36Zm-2,1.6h6.4l.32-.4H27.68Zm-14.4,1.6h19.6l.4-.4h-20Zm0,1.6H30.08l.72-.4H12.64Zm0,1.6H25.6a19.048,19.048,0,0,0,2.08-.4H12.64ZM47.04,90H79.68V79.92H58.8V42H47.04ZM50,87.76V44.24h5.84V82.16H76.72v5.6Zm4.32-4.16h21.6v-.4H54.8Zm-1.6,1.6h23.2v-.4H53.12Zm-1.68,1.6H75.92v-.4H51.44ZM82.8,90H95.44l2.32-4.96h18.96l2.4,4.96h12.64L108.24,40.4h-2.08Zm4.16-2.24L107.2,44.72l20.4,43.04h-6.48L107.84,58.8h-1.12L93.28,87.76ZM107.04,46.8h.32l-.16-.32Zm-.64,1.44h1.52l-.24-.4h-1.12Zm-.8,1.6h3.04l-.16-.4h-2.64Zm-.72,1.6h4.56l-.24-.4h-4.16Zm-.8,1.6h6.08l-.16-.4h-5.68Zm-.72,1.6h7.6l-.24-.4h-7.2Zm-.72,1.6h9.04l-.16-.4H102.8Zm-.8,1.6h10.64l-.24-.4H102.08Zm7.28,1.6h4.08l-.16-.4h-4.16Zm-8,0h4.24l.24-.4h-4.32Zm8.72,1.6H114l-.24-.4H109.6Zm-9.52,0h4.32l.24-.4h-4.32Zm10.24,1.6h4.16l-.16-.4h-4.24Zm-10.96,0h4.24l.24-.4H99.76Zm11.68,1.6h4.24l-.24-.4h-4.24Zm-12.48,0h4.32l.24-.4H99.04Zm2.72,12.32,5.52-12.08h.16l5.44,12.08ZM112,65.84h4.24l-.16-.4h-4.32Zm-13.92,0h4.24l.24-.4H98.24Zm14.64,1.6h4.32l-.24-.4h-4.32Zm-15.44,0h4.32l.24-.4H97.52Zm16.16,1.6h4.32l-.16-.4h-4.4Zm-16.88,0h4.24l.24-.4H96.72Zm17.6,1.6h4.4l-.24-.4h-4.4Zm-18.32,0h4.24l.24-.4H96Zm18.8,1.2.24.4h4.4l-.16-.4Zm-19.6.4h4.32l.24-.4H95.28Zm20.24,1.2.24.4h4.56l-.24-.4Zm-20.96.4h4.24l.24-.4H94.48ZM116,75.04l.24.4h4.56l-.16-.4Zm-22.48.4h4.32l.24-.4H93.76Zm23.2,1.2.24.4h4.64l-.24-.4Zm-23.92.4h4.32l.24-.4h-4.4Zm24.56,1.2.24.4h4.72l-.16-.4ZM92,78.64h4.4l.24-.4h-4.4Zm6.64,4.24,1.76-4h13.52l1.84,4Zm2.48-2.64h12l-.24-.4h-11.6Zm-.72,1.6h13.28l-.16-.4H100.56ZM136.88,90h11.76V61.52L167.36,90H179.6V42H167.92V70.48L149.28,42h-12.4Zm2.96-2.24V44.24h7.6l22,33.44h1.44V44.24h5.76V87.76H169.2L146.88,53.92h-1.2V87.76Zm2.32-42.24h5.12l-.32-.4h-5.04Zm1.12,1.6h5.04l-.32-.4h-4.96Zm1.04,1.6h5.04l-.32-.4h-4.96Zm1.12,1.6h4.96l-.32-.4H145.2Zm1.04,1.6h4.96l-.32-.4h-4.88Zm1.12,1.6h4.88l-.32-.4h-4.8Zm1.04,1.6h4.96l-.32-.4H148.4Zm1.04,1.6h4.96l-.32-.4h-4.88Zm1.12,1.6h4.88l-.32-.4h-4.8Zm1.04,1.6h4.88l-.32-.4h-4.8Zm1.04,1.6h4.88l-.32-.4h-4.8Zm1.04,1.6h4.96l-.32-.4h-4.88Zm1.04,1.6h4.96l-.32-.4h-4.88Zm1.04,1.6h4.96l-.32-.4h-4.88Zm1.12,1.6H162l-.32-.4h-4.8Zm1.04,1.6h4.88l-.32-.4h-4.8Zm1.04,1.6h4.88l-.32-.4h-4.8Zm1.04,1.6h4.96l-.32-.4H160Zm.8,1.2.24.4h4.96l-.32-.4Zm1.12,1.6.24.4h4.88l-.32-.4Zm1.04,1.6.24.4h4.88l-.32-.4Zm1.04,1.6.24.4h5.04l-.32-.4Zm1.04,1.6.24.4h5.2l-.4-.4Zm1.04,1.6.24.4h5.36l-.4-.4Zm1.04,1.6.24.4h5.44l-.32-.4Zm1.12,1.6.24.4h5.6l-.4-.4Zm.88,1.44.24.4h5.84l-.4-.4Zm17.68-10.64c0,8.64,5.92,15.68,16.4,15.68,9.04,0,16.24-7.04,16.24-15.52,0-7.52-4-12.32-12.56-14.88-4.08-1.2-8.48-1.84-8.48-5.44,0-3.12,2.48-4.64,5.04-4.64a4.657,4.657,0,0,1,4.96,4.96h11.04C219.04,47.2,214,40.4,203.36,40.4c-9.04,0-16.32,7.04-16.32,15.52,0,8.24,4.48,12,12.56,14.88,3.92,1.36,8.64,2.4,8.64,6,0,2.48-1.84,4.16-4.8,4.16a5,5,0,0,1-4.96-5.04Zm2.8,2.24h6.24c.72,2.64,3.28,4.96,7.36,5.04,3.76,0,7.44-2.16,7.44-6.4,0-5.2-5.52-6.4-10.08-8.08-8.8-3.12-11.04-6.88-11.04-12.8a13.594,13.594,0,0,1,13.68-13.28c9.36,0,12.88,6.48,13.36,11.2h-6c-.72-2-2.4-4.96-7.36-4.96-4.32,0-7.44,2.72-7.44,6.88,0,4.72,4.08,5.84,8.8,7.2,7.36,2.08,12.16,5.04,12.16,13.12a13.454,13.454,0,0,1-13.52,13.28C195.84,89.36,190,84.16,189.84,78.16Zm10-34.16h3.6v-.4h-1.68Zm-3.44,1.6h7.04v-.4h-6.4Zm-2.24,1.68h9.28v-.4h-8.8Zm-1.36,1.6h6.48l.88-.4h-7.04Zm-.96,1.68h5.2l.56-.48h-5.52Zm-.64,1.6h4.72l.24-.4h-4.88Zm-.48,1.68h4.64l.16-.48h-4.64Zm-.16,1.6h4.64v-.4h-4.64Zm0,1.6h4.72l-.08-.4h-4.64Zm.24,1.68h4.88l-.16-.4h-4.8Zm.4,1.6h5.68l-.48-.48.08.08h-5.36Zm.96,1.68h6.88l-.64-.4h-6.48Zm1.44,1.6h10.32l-1.52-.4h-9.2Zm2.32,1.68H208.8l-1.2-.48H195.04Zm2.24,1.2.64.4h12.72l-.48-.4Zm3.28,1.6,1.2.48H213.6l-.4-.48Zm4.64,1.68.88.4h7.76l-.16-.4Zm3.04,1.6.48.4h5.84l-.16-.4Zm1.68,2.08H216l-.16-.4h-5.28Zm.64,1.6h4.64v-.4h-4.72Zm.24,1.68h4.4l.08-.4h-4.48Zm-.16,1.6h4.4l.08-.4h-4.4ZM210.96,80h4.48l.16-.48h-4.4Zm-1.2,1.6h4.88l.24-.4h-4.72Zm-2.4,1.68h6.32l.08-.16.24-.32h-5.68Zm-3.92,1.6h8.72l.4-.4h-9.12Zm0,1.6h6.64l.56-.4h-7.2Zm0,1.68H206l1.52-.4h-4.08Z" transform="translate(14 2219)" fill="#ffe403"/>
    <g id="Group_178" data-name="Group 178" transform="translate(276.507 2220) rotate(-137)">
      <g id="Group_173" data-name="Group 173" clip-path="url(#clip-path-9)">
        <path id="Path_3936" data-name="Path 3936" d="M11.01,8.157a2.993,2.993,0,0,1-2.3,1,2.927,2.927,0,0,1-2.273-.981.929.929,0,0,0-.134.28A19.958,19.958,0,0,1,4.539,12.1,3.934,3.934,0,0,1,2.48,13.779a2.663,2.663,0,0,1-1.315.145A1.349,1.349,0,0,1,.012,12.367,3.821,3.821,0,0,1,.8,10.577,18.283,18.283,0,0,1,4.111,7.252q.653-.539,1.347-1.025a.378.378,0,0,0,.181-.3A2.673,2.673,0,0,1,6.8,3.948c.125-.09.15-.147.062-.288A1.421,1.421,0,0,1,7.3,1.6a.219.219,0,0,0,.108-.276A.889.889,0,0,0,6.531.537,4.442,4.442,0,0,0,5.891.5a.359.359,0,0,1-.234-.07A.218.218,0,0,1,5.568.2a.242.242,0,0,1,.2-.18,1.1,1.1,0,0,1,.494.031,4.849,4.849,0,0,1,1.05.388A.64.64,0,0,1,7.66.841c.038.125.083.248.12.373.03.1.086.127.186.088a2.188,2.188,0,0,1,1.518,0c.106.036.159.014.173-.094a1.128,1.128,0,0,1,.913-.967,5.051,5.051,0,0,1,.805-.222,1.139,1.139,0,0,1,.248-.01c.145.012.254.077.253.242A.242.242,0,0,1,11.63.5c-.2.018-.4.018-.6.03A1.674,1.674,0,0,0,10.8.56.879.879,0,0,0,10,1.415a.094.094,0,0,0,.04.105l.089.06a1.455,1.455,0,0,1,.436,2.1c-.072.115-.072.166.043.247a2.632,2.632,0,0,1,1.183,2.057c.009.141.1.193.19.256a27.506,27.506,0,0,1,3.063,2.556,12.215,12.215,0,0,1,1.688,1.928,3.552,3.552,0,0,1,.683,1.7,1.346,1.346,0,0,1-1.33,1.523,3.391,3.391,0,0,1-2.572-1.07,7.493,7.493,0,0,1-1.354-2.061,25.551,25.551,0,0,1-1.07-2.466c-.023-.06-.05-.119-.08-.191" transform="translate(0 0)" fill="#ed3a72"/>
        <path id="Path_3937" data-name="Path 3937" d="M336.29,775.378a8.3,8.3,0,0,1-3.154-.582.323.323,0,0,1-.231-.277,3.124,3.124,0,0,1,.066-1.463c.041-.129.079-.134.191-.08a7.465,7.465,0,0,0,5.653.3,3.569,3.569,0,0,0,.714-.32c.07-.04.1-.037.123.044a3.016,3.016,0,0,1,.039,1.653c-.026.105-.108.116-.182.145a8.429,8.429,0,0,1-3.221.577" transform="translate(-327.601 -760.743)" fill="#ed3a72"/>
        <path id="Path_3938" data-name="Path 3938" d="M384.085,621.469a6.227,6.227,0,0,1-2.42-.479c-.137-.058-.179-.106-.088-.249a5.4,5.4,0,0,0,.48-.953c.052-.135.11-.13.223-.085a5.124,5.124,0,0,0,3.956-.02c.089-.036.123-.024.156.064a5,5,0,0,0,.538,1.062c.087.126-.016.136-.086.167a6.656,6.656,0,0,1-2.76.493" transform="translate(-375.512 -609.892)" fill="#ed3a72"/>
        <path id="Path_3939" data-name="Path 3939" d="M392.29,987.3a4.47,4.47,0,0,1-.74.865,3.885,3.885,0,0,1-1.776.9.617.617,0,0,1-.281,0,3.845,3.845,0,0,1-2.454-1.7.187.187,0,0,1-.014-.049,7.593,7.593,0,0,0,5.266-.014" transform="translate(-380.92 -971.728)" fill="#ed3a72"/>
      </g>
    </g>
    <g id="Group_219" data-name="Group 219" transform="translate(1203.748 3253.456) rotate(-155)">
      <g id="Group_174" data-name="Group 174" transform="matrix(0.358, -0.934, 0.934, 0.358, 1560.403, 728.507)">
        <g id="Group_173-2" data-name="Group 173" clip-path="url(#clip-path-10)">
          <path id="Path_3936-2" data-name="Path 3936" d="M13.131,9.728a3.57,3.57,0,0,1-2.738,1.189A3.49,3.49,0,0,1,7.682,9.748a1.108,1.108,0,0,0-.159.334,23.8,23.8,0,0,1-2.109,4.351,4.692,4.692,0,0,1-2.456,2,3.176,3.176,0,0,1-1.569.173A1.609,1.609,0,0,1,.014,14.749a4.557,4.557,0,0,1,.94-2.134A21.8,21.8,0,0,1,4.9,8.649q.779-.643,1.607-1.222a.451.451,0,0,0,.216-.359A3.188,3.188,0,0,1,8.112,4.708c.149-.107.179-.175.074-.344A1.694,1.694,0,0,1,8.711,1.9a.261.261,0,0,0,.129-.329A1.061,1.061,0,0,0,7.789.64,5.3,5.3,0,0,0,7.026.6.428.428,0,0,1,6.747.516.26.26,0,0,1,6.641.235.289.289,0,0,1,6.88.02a1.314,1.314,0,0,1,.589.037A5.783,5.783,0,0,1,8.722.52.764.764,0,0,1,9.136,1c.045.149.1.3.143.445.036.122.1.151.222.105a2.609,2.609,0,0,1,1.811-.006c.126.042.19.017.206-.112A1.345,1.345,0,0,1,12.607.283a6.023,6.023,0,0,1,.96-.265,1.359,1.359,0,0,1,.3-.012c.173.015.3.092.3.288a.288.288,0,0,1-.295.3c-.24.022-.481.022-.721.035a2,2,0,0,0-.273.036,1.049,1.049,0,0,0-.947,1.019.112.112,0,0,0,.048.126l.106.071a1.736,1.736,0,0,1,.519,2.5c-.086.137-.086.2.051.294a3.139,3.139,0,0,1,1.41,2.453c.011.168.121.23.227.306a32.8,32.8,0,0,1,3.653,3.048,14.567,14.567,0,0,1,2.013,2.3,4.236,4.236,0,0,1,.814,2.027,1.6,1.6,0,0,1-1.586,1.816,4.044,4.044,0,0,1-3.067-1.276A8.936,8.936,0,0,1,14.5,12.9a30.472,30.472,0,0,1-1.276-2.941c-.027-.072-.059-.142-.1-.228" transform="translate(0 0)"/>
          <path id="Path_3937-2" data-name="Path 3937" d="M4.1,2.915A9.9,9.9,0,0,1,.341,2.222a.385.385,0,0,1-.275-.33A3.725,3.725,0,0,1,.145.146c.048-.154.094-.16.228-.1a8.9,8.9,0,0,0,6.741.36A4.255,4.255,0,0,0,7.966.03c.084-.048.117-.044.147.052A3.6,3.6,0,0,1,8.16,2.054c-.031.125-.129.138-.217.173A10.049,10.049,0,0,1,4.1,2.915" transform="translate(6.26 14.537)"/>
          <path id="Path_3938-2" data-name="Path 3938" d="M3.049,2.153A7.426,7.426,0,0,1,.162,1.582c-.164-.069-.213-.126-.1-.3A6.443,6.443,0,0,0,.631.148C.692-.014.762-.007.9.047A6.111,6.111,0,0,0,5.615.023c.107-.043.146-.028.186.076a5.961,5.961,0,0,0,.641,1.267c.1.151-.019.163-.1.2a7.938,7.938,0,0,1-3.292.588" transform="translate(7.176 11.655)"/>
          <path id="Path_3939-2" data-name="Path 3939" d="M6.28,0A5.326,5.326,0,0,1,5.4,1.031,4.632,4.632,0,0,1,3.279,2.1a.739.739,0,0,1-.336,0A4.586,4.586,0,0,1,.017.074.223.223,0,0,1,0,.016,9.055,9.055,0,0,0,6.28,0" transform="translate(7.279 18.569)"/>
        </g>
      </g>
      <g id="Group_176" data-name="Group 176" transform="matrix(0.951, 0.309, -0.309, 0.951, 1586.089, 727.747)">
        <g id="Group_175" data-name="Group 175" transform="translate(0 0)" clip-path="url(#clip-path-11)">
          <path id="Path_3940" data-name="Path 3940" d="M83.716,6.53a6.191,6.191,0,0,1-.647-.033A.619.619,0,1,1,83.2,5.265a5.171,5.171,0,0,0,.785.019.619.619,0,1,1,.064,1.237q-.162.008-.331.008m-73.864,0c-.171,0-.342-.007-.507-.02a.619.619,0,1,1,.1-1.235,5.248,5.248,0,0,0,.786,0,.619.619,0,0,1,.092,1.235c-.154.011-.312.017-.471.017m55.729-.01a.619.619,0,0,1-.035-1.238,4.351,4.351,0,0,0,.764-.11.619.619,0,0,1,.288,1.2,5.621,5.621,0,0,1-.98.142h-.036M27.829,6.509l-.054,0a5.47,5.47,0,0,1-.979-.174.619.619,0,0,1,.33-1.194,4.211,4.211,0,0,0,.756.134.619.619,0,0,1-.053,1.236m20.188-.122a.619.619,0,0,1-.148-1.221,3.848,3.848,0,0,0,.715-.254.619.619,0,0,1,.528,1.121,5.078,5.078,0,0,1-.946.335.614.614,0,0,1-.149.018M45.4,6.348a.621.621,0,0,1-.169-.023,5.1,5.1,0,0,1-.934-.367.619.619,0,0,1,.565-1.1,3.8,3.8,0,0,0,.706.278A.62.62,0,0,1,45.4,6.348M30.41,6.08A.62.62,0,0,1,30.142,4.9a4.239,4.239,0,0,0,.661-.4.619.619,0,1,1,.727,1,5.455,5.455,0,0,1-.853.511.615.615,0,0,1-.267.061m32.607-.069a.615.615,0,0,1-.286-.07,5.615,5.615,0,0,1-.833-.534.619.619,0,1,1,.754-.983,4.437,4.437,0,0,0,.652.419.619.619,0,0,1-.287,1.169m23.471-.329a.619.619,0,0,1-.355-1.127,5.726,5.726,0,0,0,.618-.5.619.619,0,0,1,.843.908,6.958,6.958,0,0,1-.752.611.616.616,0,0,1-.354.111M12.727,5.609A.619.619,0,0,1,12.36,4.49a6.123,6.123,0,0,0,.612-.519.619.619,0,1,1,.856.895,7.315,7.315,0,0,1-.736.623.616.616,0,0,1-.366.12M6.952,5.59a.617.617,0,0,1-.369-.122,7.432,7.432,0,0,1-.732-.626.619.619,0,1,1,.86-.892,6.229,6.229,0,0,0,.611.523.619.619,0,0,1-.37,1.117m73.763-.076a.617.617,0,0,1-.38-.13,7.917,7.917,0,0,1-.717-.635.619.619,0,1,1,.872-.88,6.706,6.706,0,0,0,.605.537.619.619,0,0,1-.38,1.108M68.73,5.1a.619.619,0,0,1-.423-1.071c.181-.17.366-.36.583-.6a.619.619,0,1,1,.916.834c-.24.263-.447.475-.652.667a.617.617,0,0,1-.423.167M24.723,4.993a.618.618,0,0,1-.431-.175c-.2-.19-.4-.4-.639-.671a.619.619,0,0,1,.922-.827c.221.247.406.441.581.61a.619.619,0,0,1-.432,1.064M50.9,4.445a.619.619,0,0,1-.458-1.036c.165-.181.326-.366.488-.551l.09-.1a.619.619,0,1,1,.933.815l-.09.1c-.167.191-.334.383-.5.57a.618.618,0,0,1-.459.2m-8.344-.113a.618.618,0,0,1-.462-.206c-.134-.149-.265-.3-.4-.451l-.191-.218a.619.619,0,1,1,.931-.817l.194.221c.128.147.257.294.387.44a.619.619,0,0,1-.461,1.032m-9.516-.573a.619.619,0,0,1-.466-1.027c.222-.254.411-.466.609-.676a.619.619,0,1,1,.9.851c-.184.195-.364.4-.576.64a.618.618,0,0,1-.467.212M60.42,3.643a.618.618,0,0,1-.465-.21c-.168-.191-.367-.415-.577-.631a.619.619,0,0,1,.889-.862c.228.235.44.473.618.675a.619.619,0,0,1-.465,1.028m28.549-.471a.619.619,0,0,1-.453-1.042c.238-.255.457-.472.669-.661a.619.619,0,0,1,.826.923c-.184.165-.376.355-.589.583a.618.618,0,0,1-.453.2M15.191,3.079a.619.619,0,0,1-.449-1.046c.24-.252.462-.467.681-.656a.619.619,0,1,1,.81.937c-.187.162-.381.349-.592.571a.617.617,0,0,1-.449.193m-10.7-.023a.617.617,0,0,1-.448-.192A8.146,8.146,0,0,0,3.449,2.3a.619.619,0,1,1,.805-.941,9.375,9.375,0,0,1,.684.654.619.619,0,0,1-.448,1.047m73.776-.09a.618.618,0,0,1-.443-.187,7.441,7.441,0,0,0-.6-.555.619.619,0,1,1,.787-.956,8.71,8.71,0,0,1,.7.647.619.619,0,0,1-.443,1.052m-7.112-.439a.619.619,0,0,1-.411-1.083A6.478,6.478,0,0,1,71.518.85a.619.619,0,0,1,.675,1.039,5.253,5.253,0,0,0-.627.482.618.618,0,0,1-.411.156m-48.863-.1a.617.617,0,0,1-.4-.147,4.9,4.9,0,0,0-.635-.461A.619.619,0,0,1,21.9.756a6.118,6.118,0,0,1,.794.576.619.619,0,0,1-.4,1.092m31.124-.452A.619.619,0,0,1,53.082.83a5.267,5.267,0,0,1,.889-.458.619.619,0,0,1,.458,1.151,3.953,3.953,0,0,0-.679.35.616.616,0,0,1-.333.1m-13.4-.08A.617.617,0,0,1,39.7,1.8a3.882,3.882,0,0,0-.688-.326A.619.619,0,0,1,39.43.311a5.17,5.17,0,0,1,.9.428.619.619,0,0,1-.318,1.151m-4.255-.335a.619.619,0,0,1-.225-1.2A5.178,5.178,0,0,1,36.5.09a.619.619,0,0,1,.218,1.219,3.922,3.922,0,0,0-.732.2.618.618,0,0,1-.225.042m21.9-.053a.619.619,0,0,1-.2-.035,4,4,0,0,0-.741-.181.619.619,0,0,1,.18-1.226A5.257,5.257,0,0,1,57.863.3a.619.619,0,0,1-.2,1.2m34.256-.166A.619.619,0,0,1,91.793.111,5.813,5.813,0,0,1,92.774,0a.619.619,0,1,1,.033,1.238,4.569,4.569,0,0,0-.771.084.623.623,0,0,1-.122.012M18.174,1.314a.619.619,0,0,1-.1-1.23A5.964,5.964,0,0,1,19.049,0a.619.619,0,1,1,.006,1.239,4.721,4.721,0,0,0-.776.066.614.614,0,0,1-.106.009M1.5,1.309A.629.629,0,0,1,1.4,1.3a4.77,4.77,0,0,0-.777-.061A.619.619,0,0,1,.619,0,6,6,0,0,1,1.6.078a.619.619,0,0,1-.1,1.23m73.74-.019a.616.616,0,0,1-.087-.006,5.032,5.032,0,0,0-.781-.044A.619.619,0,1,1,74.344,0a6.255,6.255,0,0,1,.979.055.619.619,0,0,1-.085,1.233" transform="translate(0 0)"/>
        </g>
      </g>
      <g id="Group_177" data-name="Group 177" transform="matrix(0.951, 0.309, -0.309, 0.951, 1676.146, 756.762)">
        <g id="Group_175-2" data-name="Group 175" transform="translate(0 0)" clip-path="url(#clip-path-11)">
          <path id="Path_3940-2" data-name="Path 3940" d="M83.716,6.53a6.191,6.191,0,0,1-.647-.033A.619.619,0,1,1,83.2,5.265a5.171,5.171,0,0,0,.785.019.619.619,0,1,1,.064,1.237q-.162.008-.331.008m-73.864,0c-.171,0-.342-.007-.507-.02a.619.619,0,1,1,.1-1.235,5.248,5.248,0,0,0,.786,0,.619.619,0,0,1,.092,1.235c-.154.011-.312.017-.471.017m55.729-.01a.619.619,0,0,1-.035-1.238,4.351,4.351,0,0,0,.764-.11.619.619,0,0,1,.288,1.2,5.621,5.621,0,0,1-.98.142h-.036M27.829,6.509l-.054,0a5.47,5.47,0,0,1-.979-.174.619.619,0,0,1,.33-1.194,4.211,4.211,0,0,0,.756.134.619.619,0,0,1-.053,1.236m20.188-.122a.619.619,0,0,1-.148-1.221,3.848,3.848,0,0,0,.715-.254.619.619,0,0,1,.528,1.121,5.078,5.078,0,0,1-.946.335.614.614,0,0,1-.149.018M45.4,6.348a.621.621,0,0,1-.169-.023,5.1,5.1,0,0,1-.934-.367.619.619,0,0,1,.565-1.1,3.8,3.8,0,0,0,.706.278A.62.62,0,0,1,45.4,6.348M30.41,6.08A.62.62,0,0,1,30.142,4.9a4.239,4.239,0,0,0,.661-.4.619.619,0,1,1,.727,1,5.455,5.455,0,0,1-.853.511.615.615,0,0,1-.267.061m32.607-.069a.615.615,0,0,1-.286-.07,5.615,5.615,0,0,1-.833-.534.619.619,0,1,1,.754-.983,4.437,4.437,0,0,0,.652.419.619.619,0,0,1-.287,1.169m23.471-.329a.619.619,0,0,1-.355-1.127,5.726,5.726,0,0,0,.618-.5.619.619,0,0,1,.843.908,6.958,6.958,0,0,1-.752.611.616.616,0,0,1-.354.111M12.727,5.609A.619.619,0,0,1,12.36,4.49a6.123,6.123,0,0,0,.612-.519.619.619,0,1,1,.856.895,7.315,7.315,0,0,1-.736.623.616.616,0,0,1-.366.12M6.952,5.59a.617.617,0,0,1-.369-.122,7.432,7.432,0,0,1-.732-.626.619.619,0,1,1,.86-.892,6.229,6.229,0,0,0,.611.523.619.619,0,0,1-.37,1.117m73.763-.076a.617.617,0,0,1-.38-.13,7.917,7.917,0,0,1-.717-.635.619.619,0,1,1,.872-.88,6.706,6.706,0,0,0,.605.537.619.619,0,0,1-.38,1.108M68.73,5.1a.619.619,0,0,1-.423-1.071c.181-.17.366-.36.583-.6a.619.619,0,1,1,.916.834c-.24.263-.447.475-.652.667a.617.617,0,0,1-.423.167M24.723,4.993a.618.618,0,0,1-.431-.175c-.2-.19-.4-.4-.639-.671a.619.619,0,0,1,.922-.827c.221.247.406.441.581.61a.619.619,0,0,1-.432,1.064M50.9,4.445a.619.619,0,0,1-.458-1.036c.165-.181.326-.366.488-.551l.09-.1a.619.619,0,1,1,.933.815l-.09.1c-.167.191-.334.383-.5.57a.618.618,0,0,1-.459.2m-8.344-.113a.618.618,0,0,1-.462-.206c-.134-.149-.265-.3-.4-.451l-.191-.218a.619.619,0,1,1,.931-.817l.194.221c.128.147.257.294.387.44a.619.619,0,0,1-.461,1.032m-9.516-.573a.619.619,0,0,1-.466-1.027c.222-.254.411-.466.609-.676a.619.619,0,1,1,.9.851c-.184.195-.364.4-.576.64a.618.618,0,0,1-.467.212M60.42,3.643a.618.618,0,0,1-.465-.21c-.168-.191-.367-.415-.577-.631a.619.619,0,0,1,.889-.862c.228.235.44.473.618.675a.619.619,0,0,1-.465,1.028m28.549-.471a.619.619,0,0,1-.453-1.042c.238-.255.457-.472.669-.661a.619.619,0,0,1,.826.923c-.184.165-.376.355-.589.583a.618.618,0,0,1-.453.2M15.191,3.079a.619.619,0,0,1-.449-1.046c.24-.252.462-.467.681-.656a.619.619,0,1,1,.81.937c-.187.162-.381.349-.592.571a.617.617,0,0,1-.449.193m-10.7-.023a.617.617,0,0,1-.448-.192A8.146,8.146,0,0,0,3.449,2.3a.619.619,0,1,1,.805-.941,9.375,9.375,0,0,1,.684.654.619.619,0,0,1-.448,1.047m73.776-.09a.618.618,0,0,1-.443-.187,7.441,7.441,0,0,0-.6-.555.619.619,0,1,1,.787-.956,8.71,8.71,0,0,1,.7.647.619.619,0,0,1-.443,1.052m-7.112-.439a.619.619,0,0,1-.411-1.083A6.478,6.478,0,0,1,71.518.85a.619.619,0,0,1,.675,1.039,5.253,5.253,0,0,0-.627.482.618.618,0,0,1-.411.156m-48.863-.1a.617.617,0,0,1-.4-.147,4.9,4.9,0,0,0-.635-.461A.619.619,0,0,1,21.9.756a6.118,6.118,0,0,1,.794.576.619.619,0,0,1-.4,1.092m31.124-.452A.619.619,0,0,1,53.082.83a5.267,5.267,0,0,1,.889-.458.619.619,0,0,1,.458,1.151,3.953,3.953,0,0,0-.679.35.616.616,0,0,1-.333.1m-13.4-.08A.617.617,0,0,1,39.7,1.8a3.882,3.882,0,0,0-.688-.326A.619.619,0,0,1,39.43.311a5.17,5.17,0,0,1,.9.428.619.619,0,0,1-.318,1.151m-4.255-.335a.619.619,0,0,1-.225-1.2A5.178,5.178,0,0,1,36.5.09a.619.619,0,0,1,.218,1.219,3.922,3.922,0,0,0-.732.2.618.618,0,0,1-.225.042m21.9-.053a.619.619,0,0,1-.2-.035,4,4,0,0,0-.741-.181.619.619,0,0,1,.18-1.226A5.257,5.257,0,0,1,57.863.3a.619.619,0,0,1-.2,1.2m34.256-.166A.619.619,0,0,1,91.793.111,5.813,5.813,0,0,1,92.774,0a.619.619,0,1,1,.033,1.238,4.569,4.569,0,0,0-.771.084.623.623,0,0,1-.122.012M18.174,1.314a.619.619,0,0,1-.1-1.23A5.964,5.964,0,0,1,19.049,0a.619.619,0,1,1,.006,1.239,4.721,4.721,0,0,0-.776.066.614.614,0,0,1-.106.009M1.5,1.309A.629.629,0,0,1,1.4,1.3a4.77,4.77,0,0,0-.777-.061A.619.619,0,0,1,.619,0,6,6,0,0,1,1.6.078a.619.619,0,0,1-.1,1.23m73.74-.019a.616.616,0,0,1-.087-.006,5.032,5.032,0,0,0-.781-.044A.619.619,0,1,1,74.344,0a6.255,6.255,0,0,1,.979.055.619.619,0,0,1-.085,1.233" transform="translate(0 0)"/>
        </g>
      </g>
    </g>
  </g>
</svg>
