<svg xmlns="http://www.w3.org/2000/svg" width="76.564" height="69.563" viewBox="0 0 76.564 69.563">
  <path id="Icon_corebrands-amazon" data-name="Icon corebrands-amazon" d="M.148,55.644c.225-.373.586-.4,1.111-.074A74.033,74.033,0,0,0,39.132,65.68,75.014,75.014,0,0,0,66.1,60.593l1-.45c.45-.2.749-.323.936-.412a1.286,1.286,0,0,1,1.683.412c.385.548.287,1.072-.385,1.534-.811.6-1.92,1.309-3.2,2.082a51.956,51.956,0,0,1-13.363,5.51,56.051,56.051,0,0,1-14.411,1.946,55.771,55.771,0,0,1-20.532-3.789A57.1,57.1,0,0,1,.488,56.742.975.975,0,0,1,0,56.031a.652.652,0,0,1,.163-.412ZM21.092,35.8a13.987,13.987,0,0,1,2.37-8.215,14.673,14.673,0,0,1,6.52-5.16,34.916,34.916,0,0,1,9.287-2.293q3.062-.336,6.135-.56V18.4c0-2.98-.337-4.974-.96-5.984a5.222,5.222,0,0,0-4.6-2.082h-.574A7.6,7.6,0,0,0,35.293,11.8a5.7,5.7,0,0,0-2.157,3.5,1.793,1.793,0,0,1-1.4,1.62l-8.04-1.01c-.785-.187-1.185-.574-1.185-1.235a1.891,1.891,0,0,1,.074-.486A13.415,13.415,0,0,1,28.4,5.006,22.193,22.193,0,0,1,39.208,1.653h1.733c5.261,0,9.438,1.383,12.4,4.114.436.486.859.96,1.3,1.534a9.051,9.051,0,0,1,.9,1.434,6.138,6.138,0,0,1,.622,1.819c.187.811.337,1.348.436,1.632a9.62,9.62,0,0,1,.237,1.958c.038,1,.062,1.582.062,1.771V32.771a10.686,10.686,0,0,0,.524,3.3,7.5,7.5,0,0,0,1.01,2.145l1.632,2.157a2.138,2.138,0,0,1,.424,1.147,1.2,1.2,0,0,1-.574,1c-3.827,3.353-5.934,5.172-6.259,5.46a1.849,1.849,0,0,1-2.008.151,21.414,21.414,0,0,1-1.683-1.582l-.984-1.111q-.534-.656-1.022-1.348l-.948-1.383c-2.592,2.829-5.125,4.6-7.666,5.311a19.9,19.9,0,0,1-5.835.723,12.261,12.261,0,0,1-8.813-3.291c-2.293-2.207-3.442-5.323-3.442-9.387l-.163-.237Zm11.98-1.4a6.594,6.594,0,0,0,1.36,4.351,4.585,4.585,0,0,0,3.676,1.632,3.371,3.371,0,0,0,.622-.062,3.758,3.758,0,0,1,.536-.074A7.139,7.139,0,0,0,43.8,36.5a10.169,10.169,0,0,0,1.158-2.906,12.523,12.523,0,0,0,.424-2.556c.05-.622.05-1.721.05-3.2V26.107a24.553,24.553,0,0,0-6.135.574c-4.064,1.147-6.12,3.727-6.12,7.755l-.112-.062ZM62.3,56.828a2.678,2.678,0,0,1,.424-.536,11.187,11.187,0,0,1,3.353-1.6,26.271,26.271,0,0,1,5.149-.773,4.119,4.119,0,0,1,1.309.1c2.07.187,3.341.536,3.741,1.048a2.259,2.259,0,0,1,.287,1.247V56.8a15.816,15.816,0,0,1-1.333,5.735A13.891,13.891,0,0,1,71.557,67.9a1.026,1.026,0,0,1-.637.287.744.744,0,0,1-.287-.038c-.287-.136-.337-.373-.2-.761C72.155,63.363,73,60.546,73,58.961a1.889,1.889,0,0,0-.275-1.1c-.462-.524-1.757-.823-3.913-.823q-1.16,0-2.767.151c-1.158.151-2.245.287-3.191.436a.811.811,0,0,1-.574-.151c-.1-.086-.124-.151-.074-.237a.53.53,0,0,1,.074-.213V56.84Z" transform="translate(-0.002 -1.653)" fill="#eb506c"/>
</svg>
