<svg xmlns="http://www.w3.org/2000/svg" xmlns:xlink="http://www.w3.org/1999/xlink" width="821" height="863" viewBox="0 0 821 863">
  <defs>
    <clipPath id="clip-path">
      <rect id="Rectangle_142" data-name="Rectangle 142" width="821" height="863" transform="translate(0 0)" fill="#fff" stroke="#707070" stroke-width="1"/>
    </clipPath>
    <clipPath id="clip-path-2">
      <path id="Path_4010" data-name="Path 4010" d="M12.654,14.612,323.69,0,311.036,254.753,0,269.365Z" fill="#eb506c" stroke="#fef587" stroke-width="1"/>
    </clipPath>
    <clipPath id="clip-path-3">
      <path id="Path_4011" data-name="Path 4011" d="M12.654,14.612,323.69,0,311.036,254.753,0,269.365Z" fill="#ed3a72" stroke="#fef587" stroke-width="1"/>
    </clipPath>
  </defs>
  <g id="Mask_Group_14" data-name="Mask Group 14" transform="translate(0 0)" clip-path="url(#clip-path)">
    <path id="Path_4009" data-name="Path 4009" d="M820.191,0,507.761,864.062H0V0Z" transform="translate(0 -0.652)" fill="#ed3a72"/>
    <g id="Group_193" data-name="Group 193" transform="translate(-483.577 1014.671) rotate(-60)">
      <g id="Group_22" data-name="Group 22" transform="translate(225.742 162.712)">
        <path id="Path_51" data-name="Path 51" d="M83.747,7.276,0,137.778,71.144,261l154.89-7.276,83.747-130.5L238.637,0Z" transform="translate(6.954 4.181)" fill="#eb506c" stroke="#fef587" stroke-width="1"/>
        <g id="Group_21" data-name="Group 21" transform="translate(0 0)">
          <g id="Group_20" data-name="Group 20" clip-path="url(#clip-path-2)">
            <path id="Path_52" data-name="Path 52" d="M238.637,0,83.746,7.276,0,137.778,71.143,261l154.891-7.276,83.747-130.5Z" transform="translate(6.955 4.181)" fill="#eb506c" stroke="#fef587" stroke-miterlimit="10" stroke-width="1"/>
          </g>
        </g>
      </g>
      <g id="Group_141" data-name="Group 141" transform="translate(451.278 276.516)">
        <path id="Path_51-2" data-name="Path 51" d="M83.747,7.276,0,137.778,71.144,261l154.89-7.276,83.747-130.5L238.637,0Z" transform="translate(6.954 4.181)" fill="#ed3a72" stroke="#fef587" stroke-width="1"/>
        <g id="Group_21-2" data-name="Group 21" transform="translate(0 0)">
          <g id="Group_20-2" data-name="Group 20" clip-path="url(#clip-path-3)">
            <path id="Path_52-2" data-name="Path 52" d="M238.637,0,83.746,7.276,0,137.778,71.143,261l154.891-7.276,83.747-130.5Z" transform="translate(6.955 4.181)" fill="#ed3a72" stroke="#fef587" stroke-miterlimit="10" stroke-width="1"/>
          </g>
        </g>
      </g>
      <g id="Group_142" data-name="Group 142" transform="translate(676.921 391.577)">
        <path id="Path_51-3" data-name="Path 51" d="M83.747,7.276,0,137.778,71.144,261l154.89-7.276,83.747-130.5L238.637,0Z" transform="translate(6.954 4.181)" fill="#eb506c" stroke="#fef587" stroke-width="1"/>
        <g id="Group_21-3" data-name="Group 21" transform="translate(0 0)">
          <g id="Group_20-3" data-name="Group 20" clip-path="url(#clip-path-2)">
            <path id="Path_52-3" data-name="Path 52" d="M238.637,0,83.746,7.276,0,137.778,71.143,261l154.891-7.276,83.747-130.5Z" transform="translate(6.955 4.181)" fill="#eb506c" stroke="#fef587" stroke-miterlimit="10" stroke-width="1"/>
          </g>
        </g>
      </g>
      <g id="Group_143" data-name="Group 143" transform="translate(0 46.238)">
        <path id="Path_51-4" data-name="Path 51" d="M83.747,7.276,0,137.778,71.144,261l154.89-7.276,83.747-130.5L238.637,0Z" transform="translate(6.954 4.181)" fill="#ed3a72" stroke="#fef587" stroke-width="1"/>
        <g id="Group_21-4" data-name="Group 21" transform="translate(0 0)">
          <g id="Group_20-4" data-name="Group 20" clip-path="url(#clip-path-3)">
            <path id="Path_52-4" data-name="Path 52" d="M238.637,0,83.746,7.276,0,137.778,71.143,261l154.891-7.276,83.747-130.5Z" transform="translate(6.955 4.181)" fill="#ed3a72" stroke="#fef587" stroke-miterlimit="10" stroke-width="1"/>
          </g>
        </g>
      </g>
      <g id="Group_144" data-name="Group 144" transform="translate(462.814 22.446)">
        <path id="Path_51-5" data-name="Path 51" d="M83.747,7.276,0,137.778,71.144,261l154.89-7.276,83.747-130.5L238.637,0Z" transform="translate(6.954 4.181)" fill="#eb506c" stroke="#fef587" stroke-width="1"/>
        <g id="Group_21-5" data-name="Group 21" transform="translate(0 0)">
          <g id="Group_20-5" data-name="Group 20" clip-path="url(#clip-path-2)">
            <path id="Path_52-5" data-name="Path 52" d="M238.637,0,83.746,7.276,0,137.778,71.143,261l154.891-7.276,83.747-130.5Z" transform="translate(6.955 4.181)" fill="#eb506c" stroke="#fef587" stroke-miterlimit="10" stroke-width="1"/>
          </g>
        </g>
      </g>
      <g id="Group_145" data-name="Group 145" transform="translate(689.504 138.245)">
        <path id="Path_51-6" data-name="Path 51" d="M83.747,7.276,0,137.778,71.144,261l154.89-7.276,83.747-130.5L238.637,0Z" transform="translate(6.954 4.181)" fill="#eb506c" stroke="#fef587" stroke-width="1"/>
        <g id="Group_21-6" data-name="Group 21" transform="translate(0 0)">
          <g id="Group_20-6" data-name="Group 20" clip-path="url(#clip-path-2)">
            <path id="Path_52-6" data-name="Path 52" d="M238.637,0,83.746,7.276,0,137.778,71.143,261l154.891-7.276,83.747-130.5Z" transform="translate(6.955 4.181)" fill="#eb506c" stroke="#fef587" stroke-miterlimit="10" stroke-width="1"/>
          </g>
        </g>
      </g>
      <g id="Group_146" data-name="Group 146" transform="translate(927.187 0)">
        <path id="Path_51-7" data-name="Path 51" d="M83.747,7.276,0,137.778,71.144,261l154.89-7.276,83.747-130.5L238.637,0Z" transform="translate(6.954 4.181)" fill="#ed3a72" stroke="#fef587" stroke-width="1"/>
        <g id="Group_21-7" data-name="Group 21" transform="translate(0 0)">
          <g id="Group_20-7" data-name="Group 20" clip-path="url(#clip-path-3)">
            <path id="Path_52-7" data-name="Path 52" d="M238.637,0,83.746,7.276,0,137.778,71.143,261l154.891-7.276,83.747-130.5Z" transform="translate(6.955 4.181)" fill="#ed3a72" stroke="#fef587" stroke-miterlimit="10" stroke-width="1"/>
          </g>
        </g>
      </g>
    </g>
  </g>
</svg>
