<svg xmlns="http://www.w3.org/2000/svg" width="66.652" height="66.637" viewBox="0 0 66.652 66.637">
  <path id="Icon_fa-brands-instagram" data-name="Icon fa-brands-instagram" d="M33.328,18.471A17.085,17.085,0,1,0,50.413,35.556,17.058,17.058,0,0,0,33.328,18.471Zm0,28.192A11.107,11.107,0,1,1,44.436,35.556,11.128,11.128,0,0,1,33.328,46.664ZM55.1,17.773a3.985,3.985,0,1,1-3.985-3.985A3.976,3.976,0,0,1,55.1,17.773Zm11.316,4.044C66.16,16.479,64.941,11.75,61.03,7.855S52.406,2.74,47.068,2.472c-5.5-.312-21.992-.312-27.494,0C14.251,2.725,9.522,3.944,5.612,7.84S.5,16.464.229,21.8c-.312,5.5-.312,21.992,0,27.494C.482,54.634,1.7,59.362,5.612,63.258s8.624,5.115,13.962,5.383c5.5.312,21.992.312,27.494,0,5.338-.253,10.067-1.472,13.962-5.383s5.115-8.624,5.383-13.962c.312-5.5.312-21.977,0-27.479ZM59.305,55.2a11.245,11.245,0,0,1-6.334,6.334c-4.386,1.74-14.8,1.338-19.643,1.338s-15.271.387-19.643-1.338A11.245,11.245,0,0,1,7.351,55.2c-1.74-4.386-1.338-14.8-1.338-19.643S5.627,20.285,7.351,15.914a11.245,11.245,0,0,1,6.334-6.334c4.386-1.74,14.8-1.338,19.643-1.338S48.6,7.855,52.971,9.579a11.245,11.245,0,0,1,6.334,6.334c1.74,4.386,1.338,14.8,1.338,19.643S61.045,50.827,59.305,55.2Z" transform="translate(0.005 -2.238)" fill="#eb506c"/>
</svg>
