<svg xmlns="http://www.w3.org/2000/svg" xmlns:xlink="http://www.w3.org/1999/xlink" width="1176" height="1641" viewBox="0 0 1176 1641">
  <defs>
    <clipPath id="clip-path">
      <rect id="Rectangle_111" data-name="Rectangle 111" width="1176" height="1641" transform="translate(744 5377)" fill="#fff" stroke="#707070" stroke-width="1"/>
    </clipPath>
    <clipPath id="clip-path-2">
      <rect id="Rectangle_58" data-name="Rectangle 58" width="1572.287" height="1480.695" transform="translate(0 -0.005)" fill="#fef587" stroke="#ed3a72" stroke-width="6"/>
    </clipPath>
  </defs>
  <g id="Mask_Group_8" data-name="Mask Group 8" transform="translate(-744 -5377)" clip-path="url(#clip-path)">
    <g id="Group_102" data-name="Group 102" transform="translate(607.825 6634.655) rotate(-60)">
      <path id="Path_135" data-name="Path 135" d="M71.879,371.543l-71.3,123.5,71.3,123.5h142.6l71.3-123.5-71.3-123.5Z" fill="#fef587" stroke="#ed3a72" stroke-width="6"/>
      <g id="Group_86" data-name="Group 86">
        <g id="Group_85" data-name="Group 85" clip-path="url(#clip-path-2)">
          <path id="Path_136" data-name="Path 136" d="M71.878,371.543h142.6l71.3,123.5-71.3,123.5H71.878L.577,495.04Z" fill="#fef587" stroke="#ed3a72" stroke-miterlimit="10" stroke-width="6"/>
        </g>
      </g>
      <path id="Path_137" data-name="Path 137" d="M72.643,124.1h142.6l71.3,123.5-71.3,123.5H72.643L1.342,247.6Z" fill="#fef587" stroke="#ed3a72" stroke-width="6"/>
      <g id="Group_88" data-name="Group 88">
        <g id="Group_87" data-name="Group 87" clip-path="url(#clip-path-2)">
          <path id="Path_138" data-name="Path 138" d="M72.643,124.1h142.6l71.3,123.5-71.3,123.5H72.643L1.342,247.6Z" fill="#fef587" stroke="#ed3a72" stroke-miterlimit="10" stroke-width="6"/>
        </g>
      </g>
      <path id="Path_139" data-name="Path 139" d="M287.023.495l-71.3,123.5,71.3,123.5h142.6l71.3-123.5L429.625.495Z" fill="#fef587" stroke="#ed3a72" stroke-width="6"/>
      <g id="Group_90" data-name="Group 90">
        <g id="Group_89" data-name="Group 89" clip-path="url(#clip-path-2)">
          <path id="Path_140" data-name="Path 140" d="M287.024.5h142.6l71.3,123.5-71.3,123.5h-142.6l-71.3-123.5Z" fill="#fef587" stroke="#ed3a72" stroke-miterlimit="10" stroke-width="6"/>
        </g>
      </g>
      <path id="Path_141" data-name="Path 141" d="M501.313,124.05h142.6l71.3,123.5-71.3,123.5h-142.6l-71.3-123.5Z" fill="#fef587" stroke="#ed3a72" stroke-width="6"/>
      <path id="Path_142" data-name="Path 142" d="M501.313,124.05h142.6l71.3,123.5-71.3,123.5h-142.6l-71.3-123.5Z" fill="#fef587" stroke="#ed3a72" stroke-miterlimit="10" stroke-width="6"/>
      <path id="Path_143" data-name="Path 143" d="M286.462,248.252h142.6l71.3,123.5-71.3,123.5h-142.6l-71.3-123.5Z" fill="#fef587" stroke="#ed3a72" stroke-width="6"/>
      <path id="Path_144" data-name="Path 144" d="M286.462,248.252h142.6l71.3,123.5-71.3,123.5h-142.6l-71.3-123.5Z" fill="#ffe403" stroke="#ed3a72" stroke-miterlimit="10" stroke-width="6"/>
      <path id="Path_145" data-name="Path 145" d="M286.6,494.335h142.6l71.3,123.5-71.3,123.5H286.6l-71.3-123.5Z" fill="#fef587" stroke="#ed3a72" stroke-width="6"/>
      <path id="Path_146" data-name="Path 146" d="M286.6,494.335h142.6l71.3,123.5-71.3,123.5H286.6l-71.3-123.5Z" fill="#fef587" stroke="#ed3a72" stroke-miterlimit="10" stroke-width="6"/>
      <path id="Path_147" data-name="Path 147" d="M500.85,370.041h142.6l71.3,123.5-71.3,123.5H500.85l-71.3-123.5Z" fill="#fef587" stroke="#ed3a72" stroke-width="6"/>
      <path id="Path_148" data-name="Path 148" d="M500.85,370.041h142.6l71.3,123.5-71.3,123.5H500.85l-71.3-123.5Z" fill="#fef587" stroke="#ed3a72" stroke-miterlimit="10" stroke-width="6"/>
      <path id="Path_149" data-name="Path 149" d="M714.981,494.169h142.6l71.3,123.5-71.3,123.5h-142.6l-71.3-123.5Z" fill="#fef587" stroke="#ed3a72" stroke-width="6"/>
      <path id="Path_150" data-name="Path 150" d="M714.981,494.169h142.6l71.3,123.5-71.3,123.5h-142.6l-71.3-123.5Z" fill="#fef587" stroke="#ed3a72" stroke-miterlimit="10" stroke-width="6"/>
      <path id="Path_151" data-name="Path 151" d="M929.34,371.083h142.6l71.3,123.5-71.3,123.5H929.34l-71.3-123.5Z" fill="#fef587" stroke="#ed3a72" stroke-width="6"/>
      <path id="Path_152" data-name="Path 152" d="M929.34,371.083h142.6l71.3,123.5-71.3,123.5H929.34l-71.3-123.5Z" fill="#fef587" stroke="#ed3a72" stroke-miterlimit="10" stroke-width="6"/>
      <path id="Path_153" data-name="Path 153" d="M1144.223,494.761h142.6l71.3,123.5-71.3,123.5h-142.6l-71.3-123.5Z" fill="#fef587" stroke="#ed3a72" stroke-width="6"/>
      <path id="Path_154" data-name="Path 154" d="M1144.223,494.761h142.6l71.3,123.5-71.3,123.5h-142.6l-71.3-123.5Z" fill="#fef587" stroke="#ed3a72" stroke-miterlimit="10" stroke-width="6"/>
      <path id="Path_155" data-name="Path 155" d="M1357.808,371.471h142.6l71.3,123.5-71.3,123.5h-142.6l-71.3-123.5Z" fill="#fef587" stroke="#ed3a72" stroke-width="6"/>
      <g id="Group_92" data-name="Group 92">
        <g id="Group_91" data-name="Group 91" clip-path="url(#clip-path-2)">
          <path id="Path_156" data-name="Path 156" d="M1357.808,371.471h142.6l71.3,123.5-71.3,123.5h-142.6l-71.3-123.5Z" fill="#fef587" stroke="#ed3a72" stroke-miterlimit="10" stroke-width="6"/>
        </g>
      </g>
      <path id="Path_157" data-name="Path 157" d="M715.493.661l-71.3,123.5,71.3,123.5h142.6l71.3-123.5L858.095.661Z" fill="#fef587" stroke="#ed3a72" stroke-width="6"/>
      <g id="Group_94" data-name="Group 94">
        <g id="Group_93" data-name="Group 93" clip-path="url(#clip-path-2)">
          <path id="Path_158" data-name="Path 158" d="M715.493.66H858.1l71.3,123.5-71.3,123.5h-142.6l-71.3-123.5Z" fill="#fef587" stroke="#ed3a72" stroke-miterlimit="10" stroke-width="6"/>
        </g>
      </g>
      <path id="Path_159" data-name="Path 159" d="M715.792,247.433h142.6l71.3,123.5-71.3,123.5h-142.6l-71.3-123.5Z" fill="#fef587" stroke="#ed3a72" stroke-width="6"/>
      <path id="Path_160" data-name="Path 160" d="M715.792,247.433h142.6l71.3,123.5-71.3,123.5h-142.6l-71.3-123.5Z" fill="#fef587" stroke="#ed3a72" stroke-miterlimit="10" stroke-width="6"/>
      <path id="Path_161" data-name="Path 161" d="M1143.088,247.992h142.6l71.3,123.5-71.3,123.5h-142.6l-71.3-123.5Z" fill="#fef587" stroke="#ed3a72" stroke-width="6"/>
      <path id="Path_162" data-name="Path 162" d="M1143.088,247.992h142.6l71.3,123.5-71.3,123.5h-142.6l-71.3-123.5Z" fill="#fef587" stroke="#ed3a72" stroke-miterlimit="10" stroke-width="6"/>
      <path id="Path_163" data-name="Path 163" d="M1357.689,125.068h142.6l71.3,123.5-71.3,123.5h-142.6l-71.3-123.5Z" fill="#fef587" stroke="#ed3a72" stroke-width="6"/>
      <g id="Group_96" data-name="Group 96">
        <g id="Group_95" data-name="Group 95" clip-path="url(#clip-path-2)">
          <path id="Path_164" data-name="Path 164" d="M1357.689,125.068h142.6l71.3,123.5-71.3,123.5h-142.6l-71.3-123.5Z" fill="#fef587" stroke="#ed3a72" stroke-miterlimit="10" stroke-width="6"/>
        </g>
      </g>
      <path id="Path_165" data-name="Path 165" d="M929.487,124.068h142.6l71.3,123.5-71.3,123.5h-142.6l-71.3-123.5Z" fill="#fef587" stroke="#ed3a72" stroke-width="6"/>
      <path id="Path_166" data-name="Path 166" d="M929.487,124.068h142.6l71.3,123.5-71.3,123.5h-142.6l-71.3-123.5Z" fill="#fef587" stroke="#ed3a72" stroke-miterlimit="10" stroke-width="6"/>
      <path id="Path_167" data-name="Path 167" d="M1143.349.931h142.6l71.3,123.5-71.3,123.5h-142.6l-71.3-123.5Z" fill="#fef587" stroke="#ed3a72" stroke-width="6"/>
      <g id="Group_98" data-name="Group 98">
        <g id="Group_97" data-name="Group 97" clip-path="url(#clip-path-2)">
          <path id="Path_168" data-name="Path 168" d="M1143.349.931h142.6l71.3,123.5-71.3,123.5h-142.6l-71.3-123.5Z" fill="#fef587" stroke="#ed3a72" stroke-miterlimit="10" stroke-width="6"/>
        </g>
      </g>
      <path id="Path_169" data-name="Path 169" d="M287.35,740.609h142.6l71.3,123.5-71.3,123.5H287.35l-71.3-123.5Z" fill="#fef587" stroke="#ed3a72" stroke-width="6"/>
      <path id="Path_170" data-name="Path 170" d="M287.35,740.609h142.6l71.3,123.5-71.3,123.5H287.35l-71.3-123.5Z" fill="#ffe403" stroke="#ed3a72" stroke-miterlimit="10" stroke-width="6"/>
      <path id="Path_171" data-name="Path 171" d="M286.887,986.6h142.6l71.3,123.5-71.3,123.5h-142.6l-71.3-123.5Z" fill="#fef587" stroke="#ed3a72" stroke-width="6"/>
      <path id="Path_172" data-name="Path 172" d="M286.887,986.6h142.6l71.3,123.5-71.3,123.5h-142.6l-71.3-123.5Z" fill="#fef587" stroke="#ed3a72" stroke-miterlimit="10" stroke-width="6"/>
      <path id="Path_173" data-name="Path 173" d="M501.018,1110.728h142.6l71.3,123.5-71.3,123.5h-142.6l-71.3-123.5Z" fill="#fef587" stroke="#ed3a72" stroke-width="6"/>
      <path id="Path_174" data-name="Path 174" d="M501.018,1110.728h142.6l71.3,123.5-71.3,123.5h-142.6l-71.3-123.5Z" fill="#fef587" stroke="#ed3a72" stroke-miterlimit="10" stroke-width="6"/>
      <path id="Path_175" data-name="Path 175" d="M715.378,987.642h142.6l71.3,123.5-71.3,123.5h-142.6l-71.3-123.5Z" fill="#fef587" stroke="#ed3a72" stroke-width="6"/>
      <path id="Path_176" data-name="Path 176" d="M715.378,987.642h142.6l71.3,123.5-71.3,123.5h-142.6l-71.3-123.5Z" fill="#fef587" stroke="#ed3a72" stroke-miterlimit="10" stroke-width="6"/>
      <path id="Path_177" data-name="Path 177" d="M930.261,1111.32h142.6l71.3,123.5-71.3,123.5h-142.6l-71.3-123.5Z" fill="#fef587" stroke="#ed3a72" stroke-width="6"/>
      <path id="Path_178" data-name="Path 178" d="M930.261,1111.32h142.6l71.3,123.5-71.3,123.5h-142.6l-71.3-123.5Z" fill="#fef587" stroke="#ed3a72" stroke-miterlimit="10" stroke-width="6"/>
      <path id="Path_179" data-name="Path 179" d="M715.838,1233.2l-71.3,123.5,71.3,123.5h142.6l71.3-123.5-71.3-123.5Z" fill="#fef587" stroke="#ed3a72" stroke-width="6"/>
      <g id="Group_100" data-name="Group 100">
        <g id="Group_99" data-name="Group 99" clip-path="url(#clip-path-2)">
          <path id="Path_180" data-name="Path 180" d="M715.837,1233.2h142.6l71.3,123.5-71.3,123.5h-142.6l-71.3-123.5Z" fill="#fef587" stroke="#ed3a72" stroke-miterlimit="10" stroke-width="6"/>
        </g>
      </g>
      <path id="Path_181" data-name="Path 181" d="M1143.845,988.029h142.6l71.3,123.5-71.3,123.5h-142.6l-71.3-123.5Z" fill="#fef587" stroke="#ed3a72" stroke-width="6"/>
      <path id="Path_182" data-name="Path 182" d="M1143.845,988.029h142.6l71.3,123.5-71.3,123.5h-142.6l-71.3-123.5Z" fill="#fef587" stroke="#ed3a72" stroke-miterlimit="10" stroke-width="6"/>
      <path id="Path_183" data-name="Path 183" d="M501.53,617.219h142.6l71.3,123.5-71.3,123.5H501.53l-71.3-123.5Z" fill="#fef587" stroke="#ed3a72" stroke-width="6"/>
      <path id="Path_184" data-name="Path 184" d="M501.53,617.219h142.6l71.3,123.5-71.3,123.5H501.53l-71.3-123.5Z" fill="#ffe403" stroke="#ed3a72" stroke-miterlimit="10" stroke-width="6"/>
      <path id="Path_185" data-name="Path 185" d="M501.83,863.991h142.6l71.3,123.5-71.3,123.5H501.83l-71.3-123.5Z" fill="#fef587" stroke="#ed3a72" stroke-width="6"/>
      <path id="Path_186" data-name="Path 186" d="M501.83,863.991h142.6l71.3,123.5-71.3,123.5H501.83l-71.3-123.5Z" fill="#fef587" stroke="#ed3a72" stroke-miterlimit="10" stroke-width="6"/>
      <path id="Path_187" data-name="Path 187" d="M929.125,864.551h142.6l71.3,123.5-71.3,123.5h-142.6l-71.3-123.5Z" fill="#fef587" stroke="#ed3a72" stroke-width="6"/>
      <path id="Path_188" data-name="Path 188" d="M929.125,864.551h142.6l71.3,123.5-71.3,123.5h-142.6l-71.3-123.5Z" fill="#fef587" stroke="#ed3a72" stroke-miterlimit="10" stroke-width="6"/>
      <path id="Path_189" data-name="Path 189" d="M1143.726,741.627h142.6l71.3,123.5-71.3,123.5h-142.6l-71.3-123.5Z" fill="#fef587" stroke="#ed3a72" stroke-width="6"/>
      <path id="Path_190" data-name="Path 190" d="M1143.726,741.627h142.6l71.3,123.5-71.3,123.5h-142.6l-71.3-123.5Z" fill="#fef587" stroke="#ed3a72" stroke-miterlimit="10" stroke-width="6"/>
      <path id="Path_191" data-name="Path 191" d="M715.524,740.627h142.6l71.3,123.5-71.3,123.5h-142.6l-71.3-123.5Z" fill="#fef587" stroke="#ed3a72" stroke-width="6"/>
      <path id="Path_192" data-name="Path 192" d="M715.524,740.627h142.6l71.3,123.5-71.3,123.5h-142.6l-71.3-123.5Z" fill="#fef587" stroke="#ed3a72" stroke-miterlimit="10" stroke-width="6"/>
      <path id="Path_193" data-name="Path 193" d="M929.386,617.49h142.6l71.3,123.5-71.3,123.5h-142.6l-71.3-123.5Z" fill="#fef587" stroke="#ed3a72" stroke-width="6"/>
      <path id="Path_194" data-name="Path 194" d="M929.386,617.49h142.6l71.3,123.5-71.3,123.5h-142.6l-71.3-123.5Z" fill="#ffe403" stroke="#ed3a72" stroke-miterlimit="10" stroke-width="6"/>
    </g>
  </g>
</svg>
