<svg id="Group_326" data-name="Group 326" xmlns="http://www.w3.org/2000/svg" xmlns:xlink="http://www.w3.org/1999/xlink" width="393" height="852" viewBox="0 0 393 852">
  <defs>
    <clipPath id="clip-path">
      <rect id="Rectangle_202" data-name="Rectangle 202" width="393" height="852" fill="#fff"/>
    </clipPath>
    <clipPath id="clip-path-2">
      <rect id="Rectangle_21" data-name="Rectangle 21" width="178.453" height="154.545" fill="#fef587" stroke="#ffe403" stroke-width="4"/>
    </clipPath>
    <clipPath id="clip-path-16">
      <rect id="Rectangle_100" data-name="Rectangle 100" width="22.389" height="22.294" fill="#ffe403"/>
    </clipPath>
  </defs>
  <rect id="Rectangle_203" data-name="Rectangle 203" width="393" height="852" fill="#fff"/>
  <g id="Mask_Group_19" data-name="Mask Group 19" clip-path="url(#clip-path)">
    <g id="Group_325" data-name="Group 325">
      <g id="Group_193" data-name="Group 193" transform="translate(788.965 953.892) rotate(-120)">
        <g id="Group_22" data-name="Group 22" transform="translate(768.647 -95.09)">
          <path id="Path_51" data-name="Path 51" d="M45.011.5.577,77.46l44.434,76.961h88.866L178.311,77.46,133.877.5Z" transform="translate(-0.218 -0.188)" fill="#fef587" stroke="#ffe403" stroke-width="4"/>
          <g id="Group_21" data-name="Group 21">
            <g id="Group_20" data-name="Group 20" clip-path="url(#clip-path-2)">
              <path id="Path_52" data-name="Path 52" d="M133.878.5H45.011L.578,77.461l44.433,76.961h88.867l44.434-76.961Z" transform="translate(-0.218 -0.188)" fill="#fef587" stroke="#ffe403" stroke-miterlimit="10" stroke-width="4"/>
            </g>
          </g>
        </g>
        <g id="Group_141" data-name="Group 141" transform="translate(901.599 -19.448)">
          <path id="Path_51-2" data-name="Path 51" d="M45.011.5.577,77.46l44.434,76.961h88.866L178.311,77.46,133.877.5Z" transform="translate(-0.218 -0.188)" fill="#fef587" stroke="#ffe403" stroke-width="4"/>
          <g id="Group_21-2" data-name="Group 21">
            <g id="Group_20-2" data-name="Group 20" clip-path="url(#clip-path-2)">
              <path id="Path_52-2" data-name="Path 52" d="M133.878.5H45.011L.578,77.461l44.433,76.961h88.867l44.434-76.961Z" transform="translate(-0.218 -0.188)" fill="#fef587" stroke="#ffe403" stroke-miterlimit="10" stroke-width="4"/>
            </g>
          </g>
        </g>
        <g id="Group_142" data-name="Group 142" transform="translate(1034.648 56.962)">
          <path id="Path_51-3" data-name="Path 51" d="M45.011.5.577,77.46l44.434,76.961h88.866L178.311,77.46,133.877.5Z" transform="translate(-0.218 -0.188)" fill="#fef587" stroke="#ffe403" stroke-width="4"/>
          <g id="Group_21-3" data-name="Group 21">
            <g id="Group_20-3" data-name="Group 20" clip-path="url(#clip-path-2)">
              <path id="Path_52-3" data-name="Path 52" d="M133.878.5H45.011L.578,77.461l44.433,76.961h88.867l44.434-76.961Z" transform="translate(-0.218 -0.188)" fill="#fef587" stroke="#ffe403" stroke-miterlimit="10" stroke-width="4"/>
            </g>
          </g>
        </g>
        <g id="Group_143" data-name="Group 143" transform="translate(635.5 -172.363)">
          <path id="Path_51-4" data-name="Path 51" d="M45.011.5.577,77.46l44.434,76.961h88.866L178.311,77.46,133.877.5Z" transform="translate(-0.218 -0.188)" fill="#fef587" stroke="#ffe403" stroke-width="4"/>
          <g id="Group_21-4" data-name="Group 21">
            <g id="Group_20-4" data-name="Group 20" clip-path="url(#clip-path-2)">
              <path id="Path_52-4" data-name="Path 52" d="M133.878.5H45.011L.578,77.461l44.433,76.961h88.867l44.434-76.961Z" transform="translate(-0.218 -0.188)" fill="#fef587" stroke="#ffe403" stroke-miterlimit="10" stroke-width="4"/>
            </g>
          </g>
        </g>
        <g id="Group_144" data-name="Group 144" transform="translate(900.976 -173.609)">
          <path id="Path_51-5" data-name="Path 51" d="M45.011.5.577,77.46l44.434,76.961h88.866L178.311,77.46,133.877.5Z" transform="translate(-0.218 -0.188)" fill="#fef587" stroke="#ffe403" stroke-width="4"/>
          <g id="Group_21-5" data-name="Group 21">
            <g id="Group_20-5" data-name="Group 20" clip-path="url(#clip-path-2)">
              <path id="Path_52-5" data-name="Path 52" d="M133.878.5H45.011L.578,77.461l44.433,76.961h88.867l44.434-76.961Z" transform="translate(-0.218 -0.188)" fill="#fef587" stroke="#ffe403" stroke-miterlimit="10" stroke-width="4"/>
            </g>
          </g>
        </g>
        <g id="Group_145" data-name="Group 145" transform="translate(1034.648 -96.721)">
          <path id="Path_51-6" data-name="Path 51" d="M45.011.5.577,77.46l44.434,76.961h88.866L178.311,77.46,133.877.5Z" transform="translate(-0.218 -0.188)" fill="#fef587" stroke="#ffe403" stroke-width="4"/>
          <g id="Group_21-6" data-name="Group 21">
            <g id="Group_20-6" data-name="Group 20" clip-path="url(#clip-path-2)">
              <path id="Path_52-6" data-name="Path 52" d="M133.878.5H45.011L.578,77.461l44.433,76.961h88.867l44.434-76.961Z" transform="translate(-0.218 -0.188)" fill="#fef587" stroke="#ffe403" stroke-miterlimit="10" stroke-width="4"/>
            </g>
          </g>
        </g>
        <g id="Group_146" data-name="Group 146" transform="translate(1167.386 -173.993)">
          <path id="Path_51-7" data-name="Path 51" d="M45.011.5.577,77.46l44.434,76.961h88.866L178.311,77.46,133.877.5Z" transform="translate(-0.218 -0.188)" fill="#fef587" stroke="#ffe403" stroke-width="4"/>
          <g id="Group_21-7" data-name="Group 21">
            <g id="Group_20-7" data-name="Group 20" clip-path="url(#clip-path-2)">
              <path id="Path_52-7" data-name="Path 52" d="M133.878.5H45.011L.578,77.461l44.433,76.961h88.867l44.434-76.961Z" transform="translate(-0.218 -0.188)" fill="#fef587" stroke="#ffe403" stroke-miterlimit="10" stroke-width="4"/>
            </g>
          </g>
        </g>
      </g>
      <g id="Group_206" data-name="Group 206" transform="translate(-466.083 -186.755) rotate(60)">
        <g id="Group_22-2" data-name="Group 22" transform="translate(768.647 -95.09)">
          <path id="Path_51-8" data-name="Path 51" d="M45.011.5.577,77.46l44.434,76.961h88.866L178.311,77.46,133.877.5Z" transform="translate(-0.218 -0.188)" fill="#fef587" stroke="#ffe403" stroke-width="4"/>
          <g id="Group_21-8" data-name="Group 21">
            <g id="Group_20-8" data-name="Group 20" clip-path="url(#clip-path-2)">
              <path id="Path_52-8" data-name="Path 52" d="M133.878.5H45.011L.578,77.461l44.433,76.961h88.867l44.434-76.961Z" transform="translate(-0.218 -0.188)" fill="#fef587" stroke="#ffe403" stroke-miterlimit="10" stroke-width="4"/>
            </g>
          </g>
        </g>
        <g id="Group_141-2" data-name="Group 141" transform="translate(901.599 -19.448)">
          <path id="Path_51-9" data-name="Path 51" d="M45.011.5.577,77.46l44.434,76.961h88.866L178.311,77.46,133.877.5Z" transform="translate(-0.218 -0.188)" fill="#fef587" stroke="#ffe403" stroke-width="4"/>
          <g id="Group_21-9" data-name="Group 21">
            <g id="Group_20-9" data-name="Group 20" clip-path="url(#clip-path-2)">
              <path id="Path_52-9" data-name="Path 52" d="M133.878.5H45.011L.578,77.461l44.433,76.961h88.867l44.434-76.961Z" transform="translate(-0.218 -0.188)" fill="#fef587" stroke="#ffe403" stroke-miterlimit="10" stroke-width="4"/>
            </g>
          </g>
        </g>
        <g id="Group_142-2" data-name="Group 142" transform="translate(1034.648 56.962)">
          <path id="Path_51-10" data-name="Path 51" d="M45.011.5.577,77.46l44.434,76.961h88.866L178.311,77.46,133.877.5Z" transform="translate(-0.218 -0.188)" fill="#fef587" stroke="#ffe403" stroke-width="4"/>
          <g id="Group_21-10" data-name="Group 21">
            <g id="Group_20-10" data-name="Group 20" clip-path="url(#clip-path-2)">
              <path id="Path_52-10" data-name="Path 52" d="M133.878.5H45.011L.578,77.461l44.433,76.961h88.867l44.434-76.961Z" transform="translate(-0.218 -0.188)" fill="#fef587" stroke="#ffe403" stroke-miterlimit="10" stroke-width="4"/>
            </g>
          </g>
        </g>
        <g id="Group_143-2" data-name="Group 143" transform="translate(635.5 -172.363)">
          <path id="Path_51-11" data-name="Path 51" d="M45.011.5.577,77.46l44.434,76.961h88.866L178.311,77.46,133.877.5Z" transform="translate(-0.218 -0.188)" fill="#fef587" stroke="#ffe403" stroke-width="4"/>
          <g id="Group_21-11" data-name="Group 21">
            <g id="Group_20-11" data-name="Group 20" clip-path="url(#clip-path-2)">
              <path id="Path_52-11" data-name="Path 52" d="M133.878.5H45.011L.578,77.461l44.433,76.961h88.867l44.434-76.961Z" transform="translate(-0.218 -0.188)" fill="#fef587" stroke="#ffe403" stroke-miterlimit="10" stroke-width="4"/>
            </g>
          </g>
        </g>
        <g id="Group_144-2" data-name="Group 144" transform="translate(900.976 -173.609)">
          <path id="Path_51-12" data-name="Path 51" d="M45.011.5.577,77.46l44.434,76.961h88.866L178.311,77.46,133.877.5Z" transform="translate(-0.218 -0.188)" fill="#fef587" stroke="#ffe403" stroke-width="4"/>
          <g id="Group_21-12" data-name="Group 21">
            <g id="Group_20-12" data-name="Group 20" clip-path="url(#clip-path-2)">
              <path id="Path_52-12" data-name="Path 52" d="M133.878.5H45.011L.578,77.461l44.433,76.961h88.867l44.434-76.961Z" transform="translate(-0.218 -0.188)" fill="#fef587" stroke="#ffe403" stroke-miterlimit="10" stroke-width="4"/>
            </g>
          </g>
        </g>
        <g id="Group_145-2" data-name="Group 145" transform="translate(1034.648 -96.721)">
          <path id="Path_51-13" data-name="Path 51" d="M45.011.5.577,77.46l44.434,76.961h88.866L178.311,77.46,133.877.5Z" transform="translate(-0.218 -0.188)" fill="#fef587" stroke="#ffe403" stroke-width="4"/>
          <g id="Group_21-13" data-name="Group 21">
            <g id="Group_20-13" data-name="Group 20" clip-path="url(#clip-path-2)">
              <path id="Path_52-13" data-name="Path 52" d="M133.878.5H45.011L.578,77.461l44.433,76.961h88.867l44.434-76.961Z" transform="translate(-0.218 -0.188)" fill="#fef587" stroke="#ffe403" stroke-miterlimit="10" stroke-width="4"/>
            </g>
          </g>
        </g>
        <g id="Group_146-2" data-name="Group 146" transform="translate(1167.386 -173.993)">
          <path id="Path_51-14" data-name="Path 51" d="M45.011.5.577,77.46l44.434,76.961h88.866L178.311,77.46,133.877.5Z" transform="translate(-0.218 -0.188)" fill="#fef587" stroke="#ffe403" stroke-width="4"/>
          <g id="Group_21-14" data-name="Group 21">
            <g id="Group_20-14" data-name="Group 20" clip-path="url(#clip-path-2)">
              <path id="Path_52-14" data-name="Path 52" d="M133.878.5H45.011L.578,77.461l44.433,76.961h88.867l44.434-76.961Z" transform="translate(-0.218 -0.188)" fill="#fef587" stroke="#ffe403" stroke-miterlimit="10" stroke-width="4"/>
            </g>
          </g>
        </g>
      </g>
      <g id="Group_221" data-name="Group 221" transform="translate(322.507 128) rotate(-137)">
        <g id="Group_173" data-name="Group 173" clip-path="url(#clip-path-16)">
          <path id="Path_3936" data-name="Path 3936" d="M14.15,10.482A3.847,3.847,0,0,1,11.2,11.764,3.761,3.761,0,0,1,8.278,10.5a1.194,1.194,0,0,0-.172.36,25.649,25.649,0,0,1-2.273,4.688,5.056,5.056,0,0,1-2.647,2.156,3.423,3.423,0,0,1-1.69.186,1.734,1.734,0,0,1-1.482-2,4.911,4.911,0,0,1,1.013-2.3A23.5,23.5,0,0,1,5.283,9.32Q6.122,8.627,7.015,8a.486.486,0,0,0,.232-.387A3.435,3.435,0,0,1,8.741,5.073c.16-.115.193-.188.08-.371a1.826,1.826,0,0,1,.566-2.651A.281.281,0,0,0,9.527,1.7,1.143,1.143,0,0,0,8.394.69,5.709,5.709,0,0,0,7.571.646a.461.461,0,0,1-.3-.09.28.28,0,0,1-.114-.3A.311.311,0,0,1,7.414.021a1.415,1.415,0,0,1,.635.04A6.232,6.232,0,0,1,9.4.56a.823.823,0,0,1,.446.521c.048.161.107.318.154.479.039.132.11.163.24.113a2.811,2.811,0,0,1,1.951-.006c.136.046.2.018.222-.12A1.45,1.45,0,0,1,13.585.3,6.491,6.491,0,0,1,14.62.02a1.464,1.464,0,0,1,.319-.013c.186.016.326.1.325.311a.311.311,0,0,1-.318.325c-.258.024-.518.023-.777.038a2.152,2.152,0,0,0-.295.039,1.13,1.13,0,0,0-1.021,1.1.121.121,0,0,0,.052.135l.114.077a1.87,1.87,0,0,1,.56,2.7c-.092.147-.092.213.055.317a3.383,3.383,0,0,1,1.52,2.643c.012.181.131.248.245.329A35.349,35.349,0,0,1,19.335,11.3,15.7,15.7,0,0,1,21.5,13.78a4.565,4.565,0,0,1,.878,2.184,1.73,1.73,0,0,1-1.709,1.957,4.358,4.358,0,0,1-3.305-1.375A9.629,9.629,0,0,1,15.627,13.9a32.836,32.836,0,0,1-1.375-3.17c-.029-.077-.064-.153-.1-.245" transform="translate(0 0)" fill="#ffe403"/>
          <path id="Path_3937" data-name="Path 3937" d="M337.271,776.074a10.672,10.672,0,0,1-4.053-.748.415.415,0,0,1-.3-.356,4.013,4.013,0,0,1,.085-1.88c.052-.166.1-.172.246-.1a9.594,9.594,0,0,0,7.264.388,4.587,4.587,0,0,0,.918-.411c.09-.052.126-.047.158.057a3.877,3.877,0,0,1,.05,2.124c-.033.135-.139.149-.234.187a10.831,10.831,0,0,1-4.139.742" transform="translate(-326.104 -757.267)" fill="#ffe403"/>
          <path id="Path_3938" data-name="Path 3938" d="M384.814,621.984a8,8,0,0,1-3.11-.615c-.176-.074-.23-.136-.113-.321a6.94,6.94,0,0,0,.617-1.225c.067-.174.142-.166.287-.109a6.585,6.585,0,0,0,5.084-.026c.115-.047.158-.03.2.082a6.425,6.425,0,0,0,.691,1.365c.112.162-.02.175-.11.215a8.556,8.556,0,0,1-3.547.634" transform="translate(-373.797 -607.105)" fill="#ffe403"/>
          <path id="Path_3939" data-name="Path 3939" d="M393.792,987.3a5.741,5.741,0,0,1-.951,1.111,4.991,4.991,0,0,1-2.283,1.153.8.8,0,0,1-.362,0,4.942,4.942,0,0,1-3.154-2.183.24.24,0,0,1-.018-.062,9.758,9.758,0,0,0,6.768-.018" transform="translate(-379.18 -967.288)" fill="#ffe403"/>
        </g>
      </g>
      <g id="Group_222" data-name="Group 222" transform="translate(79.577 606.628) rotate(133)">
        <g id="Group_173-2" data-name="Group 173" clip-path="url(#clip-path-16)">
          <path id="Path_3936-2" data-name="Path 3936" d="M14.15,10.482A3.847,3.847,0,0,1,11.2,11.764,3.761,3.761,0,0,1,8.278,10.5a1.194,1.194,0,0,0-.172.36,25.649,25.649,0,0,1-2.273,4.688,5.056,5.056,0,0,1-2.647,2.156,3.423,3.423,0,0,1-1.69.186,1.734,1.734,0,0,1-1.482-2,4.911,4.911,0,0,1,1.013-2.3A23.5,23.5,0,0,1,5.283,9.32Q6.122,8.627,7.015,8a.486.486,0,0,0,.232-.387A3.435,3.435,0,0,1,8.741,5.073c.16-.115.193-.188.08-.371a1.826,1.826,0,0,1,.566-2.651A.281.281,0,0,0,9.527,1.7,1.143,1.143,0,0,0,8.394.69,5.709,5.709,0,0,0,7.571.646a.461.461,0,0,1-.3-.09.28.28,0,0,1-.114-.3A.311.311,0,0,1,7.414.021a1.415,1.415,0,0,1,.635.04A6.232,6.232,0,0,1,9.4.56a.823.823,0,0,1,.446.521c.048.161.107.318.154.479.039.132.11.163.24.113a2.811,2.811,0,0,1,1.951-.006c.136.046.2.018.222-.12A1.45,1.45,0,0,1,13.585.3,6.491,6.491,0,0,1,14.62.02a1.464,1.464,0,0,1,.319-.013c.186.016.326.1.325.311a.311.311,0,0,1-.318.325c-.258.024-.518.023-.777.038a2.152,2.152,0,0,0-.295.039,1.13,1.13,0,0,0-1.021,1.1.121.121,0,0,0,.052.135l.114.077a1.87,1.87,0,0,1,.56,2.7c-.092.147-.092.213.055.317a3.383,3.383,0,0,1,1.52,2.643c.012.181.131.248.245.329A35.349,35.349,0,0,1,19.335,11.3,15.7,15.7,0,0,1,21.5,13.78a4.565,4.565,0,0,1,.878,2.184,1.73,1.73,0,0,1-1.709,1.957,4.358,4.358,0,0,1-3.305-1.375A9.629,9.629,0,0,1,15.627,13.9a32.836,32.836,0,0,1-1.375-3.17c-.029-.077-.064-.153-.1-.245" transform="translate(0 0)" fill="#ffe403"/>
          <path id="Path_3937-2" data-name="Path 3937" d="M337.271,776.074a10.672,10.672,0,0,1-4.053-.748.415.415,0,0,1-.3-.356,4.013,4.013,0,0,1,.085-1.88c.052-.166.1-.172.246-.1a9.594,9.594,0,0,0,7.264.388,4.587,4.587,0,0,0,.918-.411c.09-.052.126-.047.158.057a3.877,3.877,0,0,1,.05,2.124c-.033.135-.139.149-.234.187a10.831,10.831,0,0,1-4.139.742" transform="translate(-326.104 -757.267)" fill="#ffe403"/>
          <path id="Path_3938-2" data-name="Path 3938" d="M384.814,621.984a8,8,0,0,1-3.11-.615c-.176-.074-.23-.136-.113-.321a6.94,6.94,0,0,0,.617-1.225c.067-.174.142-.166.287-.109a6.585,6.585,0,0,0,5.084-.026c.115-.047.158-.03.2.082a6.425,6.425,0,0,0,.691,1.365c.112.162-.02.175-.11.215a8.556,8.556,0,0,1-3.547.634" transform="translate(-373.797 -607.105)" fill="#ffe403"/>
          <path id="Path_3939-2" data-name="Path 3939" d="M393.792,987.3a5.741,5.741,0,0,1-.951,1.111,4.991,4.991,0,0,1-2.283,1.153.8.8,0,0,1-.362,0,4.942,4.942,0,0,1-3.154-2.183.24.24,0,0,1-.018-.062,9.758,9.758,0,0,0,6.768-.018" transform="translate(-379.18 -967.288)" fill="#ffe403"/>
        </g>
      </g>
    </g>
  </g>
</svg>
