<svg xmlns="http://www.w3.org/2000/svg" xmlns:xlink="http://www.w3.org/1999/xlink" width="106.847" height="78.615" viewBox="0 0 106.847 78.615">
  <defs>
    <clipPath id="clip-path">
      <rect id="Rectangle_104" data-name="Rectangle 104" width="106.847" height="78.615" transform="translate(0 0)" fill="#ed3a72"/>
    </clipPath>
  </defs>
  <g id="Group_190" data-name="Group 190" transform="translate(77 -0.997)">
    <g id="Group_189" data-name="Group 189" transform="translate(-77 0.997)" clip-path="url(#clip-path)">
      <path id="Path_3958" data-name="Path 3958" d="M896.48,178.722A14.016,14.016,0,0,1,903,180.246a6.5,6.5,0,0,1,3.4,7.837,12.375,12.375,0,0,1-3.149,5.4,36.838,36.838,0,0,1-11.539,8.074,9.126,9.126,0,0,1-5.4.542q-9.571-1.58-19.135-3.206c-1.175-.2-1.177-.207-.877-1.3a15.557,15.557,0,0,0-.107-8.119c-.1-.4-.161-.647.3-.847,7.538-3.249,14.982-6.739,22.928-8.938a27.758,27.758,0,0,1,7.054-.964" transform="translate(-799.832 -165.043)" fill="#ed3a72"/>
      <path id="Path_3959" data-name="Path 3959" d="M10.686,178.759a38.827,38.827,0,0,1,12.6,2.869c5.591,2.054,11.033,4.466,16.475,6.879.619.275.751.539.56,1.2a14.444,14.444,0,0,0-.018,8.189c.2.683.031.875-.628.985-6.526,1.081-13.047,2.194-19.573,3.282a9.289,9.289,0,0,1-5.793-.838,33.926,33.926,0,0,1-12.08-9.234,10.915,10.915,0,0,1-1.863-3.583,6.694,6.694,0,0,1,3.974-8.579,15.425,15.425,0,0,1,6.341-1.171" transform="translate(0 -165.075)" fill="#ed3a72"/>
      <path id="Path_3960" data-name="Path 3960" d="M570.222,233.724a13.807,13.807,0,0,1-5.733,11.054c-3.03,2.279-8.115,2.28-11.362.185A13.379,13.379,0,0,1,549.9,225.88a8.172,8.172,0,0,1,2.882-2.416,13.075,13.075,0,0,1,11.022-.483c4.679,1.975,6.151,6.1,6.418,10.742" transform="translate(-505.353 -204.994)" fill="#ed3a72"/>
      <path id="Path_3961" data-name="Path 3961" d="M507.861,6.488a12.774,12.774,0,0,0-8.679-4.414,8.7,8.7,0,0,1-1.073-.128A1.018,1.018,0,0,1,497.191.8c.075-.607.563-.816,1.129-.8a15.3,15.3,0,0,1,5.186,1.069A14.8,14.8,0,0,1,509.664,5.5a1.032,1.032,0,0,0,1.065.422,14.586,14.586,0,0,1,3.422-.006,1.284,1.284,0,0,0,1.3-.513A14.8,14.8,0,0,1,526.284.031c.12-.008.24-.014.361-.013.623.007,1.208.166,1.226.893.016.677-.489.987-1.124,1.066-.775.1-1.558.148-2.326.281a11.756,11.756,0,0,0-7.247,4.282,11.33,11.33,0,0,1,3.545,2.234,7.1,7.1,0,0,1,2.118,6.829,4.152,4.152,0,0,1-.4,1.094c-.6,1.128-.886,1.16-1.98.533a15.053,15.053,0,0,0-15.85.023c-1.094.62-1.349.638-1.938-.5a6.346,6.346,0,0,1,.18-6.061c.94-1.848,2.178-2.842,5.017-4.2" transform="translate(-459.128 0.003)" fill="#ed3a72"/>
      <path id="Path_3962" data-name="Path 3962" d="M861.654,479.633a17.8,17.8,0,0,1-11.013-4.208,74.425,74.425,0,0,1-7.839-7.579.952.952,0,0,1-.115-1.335c.756-1.27.724-1.29,2.177-1.046q8.934,1.5,17.868,3.007a7.219,7.219,0,0,1,5.11,5.3c.379,2.732-1.554,5.136-4.6,5.691-.618.113-1.253.138-1.586.173" transform="translate(-777.988 -429.726)" fill="#ed3a72"/>
      <path id="Path_3963" data-name="Path 3963" d="M227.558,479.305c-2-.039-3.8-.385-5.208-1.841a4.654,4.654,0,0,1-.908-5.5,6.883,6.883,0,0,1,5.07-3.944c5.992-1.006,11.989-1.981,17.978-3,.613-.1.96-.02,1.166.584a4.019,4.019,0,0,0,.469.872.631.631,0,0,1-.092.875,51.143,51.143,0,0,1-9.607,8.969,16.772,16.772,0,0,1-8.87,2.984" transform="translate(-204.006 -429.394)" fill="#ed3a72"/>
      <path id="Path_3964" data-name="Path 3964" d="M559.379,638.052a18.165,18.165,0,0,1,1.026,6.539,1.278,1.278,0,0,1-.554.973,13.74,13.74,0,0,1-6.831,3.062,23.837,23.837,0,0,1-13.409-1c-3.7-1.42-4.321-2.556-3.682-6.481a22.556,22.556,0,0,1,.6-2.637c.1-.346.191-.566.583-.223,3.8,3.324,8.389,3.77,13.143,3.474a16.569,16.569,0,0,0,6-1.518,10.623,10.623,0,0,0,3.12-2.192" transform="translate(-494.709 -589.217)" fill="#ed3a72"/>
      <path id="Path_3965" data-name="Path 3965" d="M561.323,760.807A16.629,16.629,0,0,1,559,768.572a1.647,1.647,0,0,1-.8.555,22.024,22.024,0,0,1-11.984,1.715,16.386,16.386,0,0,1-6.475-1.784c-.234-.129-.51-.2-.653-.457a18.569,18.569,0,0,1-2.323-7.73c8.232,4.413,16.372,4.566,24.56-.065" transform="translate(-495.68 -702.576)" fill="#ed3a72"/>
      <path id="Path_3966" data-name="Path 3966" d="M570.341,557.452a21.326,21.326,0,0,1-6.822-1.1,8.2,8.2,0,0,1-3.257-2.038,1.15,1.15,0,0,1-.252-1.52,12.22,12.22,0,0,1,3.229-4.059.971.971,0,0,1,1.2-.126,13.11,13.11,0,0,0,11.89-.063.827.827,0,0,1,1.027.112,11.165,11.165,0,0,1,3.4,4.25,1,1,0,0,1-.2,1.28,9.952,9.952,0,0,1-5.292,2.711,20.584,20.584,0,0,1-4.919.549" transform="translate(-516.98 -506.446)" fill="#ed3a72"/>
      <path id="Path_3967" data-name="Path 3967" d="M423.991,578.712c-.3.7.035,1.2.187,1.733-.776.094-.656.776-.774,1.254a29.813,29.813,0,0,1-1.66,4.668c-.127.294-.226.784-.553.732-.38-.06-.363-.547-.376-.905-.005-.146-.021-.292-.031-.43a.669.669,0,0,0-.121-.02c-.451.034-.9.753-1.247.3-.267-.354.407-.7.67-1.035a14.723,14.723,0,0,0,2.672-7.187c.047-.3.087-.6.124-.894a2.051,2.051,0,0,0-.728-2.311c-1.267-.969-1.483-2.634-1.7-4.16a22.174,22.174,0,0,1,.088-6.922,1.29,1.29,0,0,0-.087-.782,3.459,3.459,0,0,1,.323-3.444,37.188,37.188,0,0,1,6.661-7.438,3.407,3.407,0,0,1,1.778-.832c.463-.064.952-.036,1.138.487a1.008,1.008,0,0,1-.449,1.179,1.864,1.864,0,0,1-.542.318,3.165,3.165,0,0,0-2.055,2.231c-.52,1.507-1.014,3.022-1.529,4.53-.532,1.555-1.1,3.083-2.842,3.724-.492.181-.145.5-.029.729.693,1.368,1.426,2.715,2.1,4.091a13.059,13.059,0,0,1,1.08,3.148,3.1,3.1,0,0,1-.853,2.987,1.423,1.423,0,0,0-.393,1.364c.125.984.181,1.977.236,2.967.014.246.138.608-.179.719-.247.086-.384-.235-.552-.4-.1-.1-.2-.216-.363-.4" transform="translate(-387.258 -508.838)" fill="#ed3a72"/>
      <path id="Path_3968" data-name="Path 3968" d="M840.694,585.819c-.037.6.083,1.172-.393,1.581-.409-.2-.473-.623-.626-.967a29.213,29.213,0,0,1-1.644-4.865c-.077-.306.088-.829-.582-.792-.223.012-.1-.286.008-.419.293-.375.187-.8.206-1.26-.483.076-.542.655-1.1.733a12.959,12.959,0,0,1,.076-3.613,1.781,1.781,0,0,0-.453-1.607,2.956,2.956,0,0,1-.738-2.679,21.931,21.931,0,0,1,2.528-6.343c.141-.266.265-.543.431-.793.395-.595.464-.991-.366-1.333a3.536,3.536,0,0,1-1.8-2.174c-.583-1.514-1.087-3.059-1.638-4.586-.214-.593-.472-1.171-.7-1.759a2.611,2.611,0,0,0-1.586-1.621,2.7,2.7,0,0,1-.563-.282c-.455-.3-.831-.7-.607-1.267.24-.612.787-.528,1.312-.4a5.582,5.582,0,0,1,2.53,1.507,52.48,52.48,0,0,1,5.262,5.823c1.025,1.335,1.568,2.783.734,4.442a1.5,1.5,0,0,0,.017.971,19.783,19.783,0,0,1-.353,8.5,3.965,3.965,0,0,1-1.885,2.742c-.285.146-.265.367-.241.609.338,3.507.883,6.942,3.327,9.731.14.159.454.326.233.592-.188.225-.454.062-.665-.039s-.41-.243-.725-.434" transform="translate(-767.473 -509.088)" fill="#ed3a72"/>
      <path id="Path_3969" data-name="Path 3969" d="M584.423,894.4a24.585,24.585,0,0,0,17.4-.044c-.529.778-.908,1.365-1.317,1.93a19.358,19.358,0,0,1-4.876,4.889,6.83,6.83,0,0,0-2.063,2.786c-.119.223-.133.565-.5.557s-.384-.342-.478-.576a6.193,6.193,0,0,0-2.421-3.027,19.838,19.838,0,0,1-5.744-6.517" transform="translate(-539.693 -825.906)" fill="#ed3a72"/>
      <path id="Path_3970" data-name="Path 3970" d="M855.748,53.355c.409.432.118.8.055,1.17.542-.018,1.325-.52,1.533.135.181.571-.728.627-1.16.867a7.515,7.515,0,0,0-2.89,2.65c-.421.692-.859,1.339-.387,2.233a2.016,2.016,0,0,1-.063,1.5,7.639,7.639,0,0,1-.786,1.717c-1.009,1.63-2.359,3.005-3.406,4.621a6.746,6.746,0,0,1-3.562,2.345c-.384.141-.861.478-1.23-.031a1.584,1.584,0,0,1-.326-1.824A5.783,5.783,0,0,1,846.853,66a.981.981,0,0,0,.778-.9,13.5,13.5,0,0,1,1.286-4.392c.472-.895,1.022-1.723,2.176-1.809.4-.03.419-.393.54-.644a14.494,14.494,0,0,1,4.116-4.891" transform="translate(-778.803 -49.271)" fill="#ed3a72"/>
      <path id="Path_3971" data-name="Path 3971" d="M369.714,56.211c-.017-.44-.377-.829-.022-1.032.3-.173.592.21.829.415A12.768,12.768,0,0,1,374,60.021c.106.239.135.522.5.542,1.258.071,1.78,1.014,2.218,1.983a16.082,16.082,0,0,1,1.116,4.165.98.98,0,0,0,.8.906,5.716,5.716,0,0,1,3.277,2.664,1.507,1.507,0,0,1-.252,1.817c-.428.591-.935.251-1.376.079a7.461,7.461,0,0,1-4.467-3.814,3.03,3.03,0,0,0-.542-.707,12.254,12.254,0,0,1-2.317-3.413,2.958,2.958,0,0,1-.079-2.69.844.844,0,0,0-.079-.848,6.989,6.989,0,0,0-2.824-3.186c-.491-.29-1-.547-1.5-.824-.153-.086-.364-.167-.314-.384.044-.19.235-.249.424-.27a2.128,2.128,0,0,1,1.125.169" transform="translate(-339.979 -50.915)" fill="#ed3a72"/>
    </g>
  </g>
</svg>
