<svg xmlns="http://www.w3.org/2000/svg" xmlns:xlink="http://www.w3.org/1999/xlink" width="133.387" height="98.143" viewBox="0 0 133.387 98.143">
  <defs>
    <clipPath id="clip-path">
      <rect id="Rectangle_104" data-name="Rectangle 104" width="133.387" height="98.143" transform="translate(0 0)" fill="#fef587"/>
    </clipPath>
  </defs>
  <g id="Group_190" data-name="Group 190" transform="translate(77 -0.997)">
    <g id="Group_189" data-name="Group 189" transform="translate(-77 0.997)" clip-path="url(#clip-path)">
      <path id="Path_3958" data-name="Path 3958" d="M904.021,178.722a17.5,17.5,0,0,1,8.142,1.9,8.119,8.119,0,0,1,4.248,9.784,15.449,15.449,0,0,1-3.931,6.742,45.988,45.988,0,0,1-14.405,10.08,11.393,11.393,0,0,1-6.745.676q-11.949-1.973-23.888-4c-1.466-.247-1.469-.259-1.1-1.627a19.421,19.421,0,0,0-.133-10.136c-.128-.5-.2-.808.379-1.058,9.41-4.056,18.7-8.412,28.623-11.158a34.654,34.654,0,0,1,8.806-1.2" transform="translate(-783.366 -161.645)" fill="#fef587"/>
      <path id="Path_3959" data-name="Path 3959" d="M13.341,178.759c5.492.111,10.648,1.713,15.736,3.582,6.98,2.564,13.774,5.575,20.567,8.588.772.343.937.672.7,1.5a18.032,18.032,0,0,0-.022,10.223c.249.852.039,1.093-.785,1.229-8.148,1.349-16.288,2.739-24.434,4.1a11.6,11.6,0,0,1-7.231-1.047c-5.78-2.862-11.048-6.387-15.08-11.528a13.627,13.627,0,0,1-2.325-4.473,8.357,8.357,0,0,1,4.961-10.711,19.256,19.256,0,0,1,7.916-1.462" transform="translate(0 -161.676)" fill="#fef587"/>
      <path id="Path_3960" data-name="Path 3960" d="M575.932,236.64a17.236,17.236,0,0,1-7.157,13.8c-3.782,2.845-10.13,2.847-14.184.231a16.7,16.7,0,0,1-4.029-23.824,10.2,10.2,0,0,1,3.6-3.016,16.322,16.322,0,0,1,13.759-.6c5.842,2.465,7.679,7.619,8.012,13.411" transform="translate(-494.949 -200.774)" fill="#fef587"/>
      <path id="Path_3961" data-name="Path 3961" d="M510.514,8.1a15.946,15.946,0,0,0-10.834-5.51,10.859,10.859,0,0,1-1.339-.16A1.271,1.271,0,0,1,497.193,1c.094-.758.7-1.019,1.41-1a19.1,19.1,0,0,1,6.475,1.335,18.47,18.47,0,0,1,7.687,5.529,1.289,1.289,0,0,0,1.33.527,18.209,18.209,0,0,1,4.272-.008,1.6,1.6,0,0,0,1.625-.64A18.482,18.482,0,0,1,533.513.04c.15-.01.3-.017.45-.016.778.008,1.508.207,1.53,1.115.021.845-.611,1.232-1.4,1.33-.968.12-1.944.185-2.9.351a14.677,14.677,0,0,0-9.047,5.346,14.145,14.145,0,0,1,4.426,2.789,8.861,8.861,0,0,1,2.644,8.525,5.185,5.185,0,0,1-.505,1.366c-.75,1.408-1.107,1.448-2.472.666-6.594-3.774-13.2-3.7-19.787.029-1.366.774-1.684.8-2.42-.626a7.922,7.922,0,0,1,.225-7.567c1.174-2.307,2.72-3.548,6.264-5.249" transform="translate(-449.676 0.003)" fill="#fef587"/>
      <path id="Path_3962" data-name="Path 3962" d="M866.42,483.182a22.22,22.22,0,0,1-13.749-5.253,92.909,92.909,0,0,1-9.786-9.462,1.189,1.189,0,0,1-.144-1.667c.944-1.586.9-1.611,2.717-1.306q11.154,1.874,22.306,3.754c2.811.478,5.991,3.81,6.38,6.614.473,3.411-1.94,6.412-5.745,7.1-.772.141-1.564.172-1.98.215" transform="translate(-761.971 -420.879)" fill="#fef587"/>
      <path id="Path_3963" data-name="Path 3963" d="M229.208,482.863c-2.5-.049-4.749-.481-6.5-2.3a5.809,5.809,0,0,1-1.133-6.861,8.593,8.593,0,0,1,6.329-4.924c7.48-1.256,14.967-2.474,22.444-3.749.765-.131,1.2-.024,1.456.729a5.018,5.018,0,0,0,.586,1.089.788.788,0,0,1-.114,1.092,63.849,63.849,0,0,1-11.993,11.2,20.938,20.938,0,0,1-11.073,3.725" transform="translate(-199.806 -420.554)" fill="#fef587"/>
      <path id="Path_3964" data-name="Path 3964" d="M565.258,638.052a22.678,22.678,0,0,1,1.281,8.163,1.6,1.6,0,0,1-.692,1.214,17.153,17.153,0,0,1-8.528,3.823,29.758,29.758,0,0,1-16.74-1.244c-4.614-1.772-5.394-3.191-4.6-8.091a28.167,28.167,0,0,1,.748-3.293c.125-.432.239-.706.728-.279,4.75,4.15,10.472,4.706,16.408,4.337a20.685,20.685,0,0,0,7.495-1.9,13.261,13.261,0,0,0,3.895-2.736" transform="translate(-484.524 -577.086)" fill="#fef587"/>
      <path id="Path_3965" data-name="Path 3965" d="M567.424,760.807a20.758,20.758,0,0,1-2.9,9.694,2.056,2.056,0,0,1-1,.693c-4.758,2.3-9.813,2.635-14.96,2.141a20.455,20.455,0,0,1-8.083-2.227c-.292-.161-.637-.249-.815-.571a23.18,23.18,0,0,1-2.9-9.65c10.276,5.509,20.439,5.7,30.661-.081" transform="translate(-485.476 -688.112)" fill="#fef587"/>
      <path id="Path_3966" data-name="Path 3966" d="M572.952,559.695a26.622,26.622,0,0,1-8.517-1.369,10.244,10.244,0,0,1-4.066-2.545,1.435,1.435,0,0,1-.315-1.9,15.255,15.255,0,0,1,4.031-5.067,1.213,1.213,0,0,1,1.494-.157,16.366,16.366,0,0,0,14.844-.079,1.033,1.033,0,0,1,1.283.14,13.938,13.938,0,0,1,4.246,5.305,1.249,1.249,0,0,1-.253,1.6,12.424,12.424,0,0,1-6.607,3.385,25.694,25.694,0,0,1-6.141.685" transform="translate(-506.336 -496.019)" fill="#fef587"/>
      <path id="Path_3967" data-name="Path 3967" d="M425.143,585.593c-.374.875.043,1.5.233,2.163-.968.118-.819.969-.966,1.566a37.215,37.215,0,0,1-2.072,5.828c-.159.367-.281.978-.691.913-.475-.075-.453-.682-.469-1.13-.006-.183-.026-.365-.039-.536a.832.832,0,0,0-.151-.025c-.563.043-1.127.94-1.557.37-.333-.441.508-.879.837-1.292,2.093-2.633,2.83-5.757,3.335-8.972.058-.371.108-.743.155-1.116.138-1.095.271-1.983-.909-2.885-1.582-1.209-1.852-3.289-2.119-5.194a27.683,27.683,0,0,1,.11-8.641,1.61,1.61,0,0,0-.109-.976,4.319,4.319,0,0,1,.4-4.3,46.427,46.427,0,0,1,8.316-9.285,4.254,4.254,0,0,1,2.22-1.039c.578-.079,1.189-.045,1.421.608a1.258,1.258,0,0,1-.56,1.471,2.328,2.328,0,0,1-.677.4,3.952,3.952,0,0,0-2.565,2.786c-.649,1.881-1.266,3.772-1.909,5.655-.664,1.942-1.368,3.849-3.548,4.649-.615.226-.181.625-.037.91.865,1.707,1.781,3.39,2.626,5.107a16.3,16.3,0,0,1,1.349,3.93,3.872,3.872,0,0,1-1.065,3.729,1.776,1.776,0,0,0-.491,1.7c.156,1.228.226,2.468.295,3.7.017.307.173.759-.223.9-.309.107-.479-.293-.689-.495-.131-.126-.245-.27-.453-.5" transform="translate(-379.286 -498.362)" fill="#fef587"/>
      <path id="Path_3968" data-name="Path 3968" d="M843.081,594.4c-.046.755.1,1.463-.491,1.974-.511-.253-.59-.778-.782-1.207a36.467,36.467,0,0,1-2.052-6.073c-.1-.383.11-1.035-.726-.988-.278.015-.119-.357.01-.523.366-.469.233-1,.257-1.573-.6.094-.677.818-1.37.915a16.178,16.178,0,0,1,.095-4.51,2.224,2.224,0,0,0-.566-2.007,3.69,3.69,0,0,1-.922-3.345,27.382,27.382,0,0,1,3.156-7.918c.176-.332.331-.678.538-.99.492-.742.58-1.237-.457-1.665a4.414,4.414,0,0,1-2.245-2.714c-.728-1.891-1.357-3.819-2.045-5.725-.267-.741-.589-1.462-.875-2.2a3.26,3.26,0,0,0-1.98-2.024,3.379,3.379,0,0,1-.7-.353c-.568-.372-1.038-.868-.758-1.582.3-.764.983-.66,1.637-.5a6.97,6.97,0,0,1,3.159,1.882,65.519,65.519,0,0,1,6.569,7.269c1.28,1.667,1.957,3.475.917,5.546a1.867,1.867,0,0,0,.021,1.212,24.7,24.7,0,0,1-.441,10.612,4.949,4.949,0,0,1-2.353,3.423c-.356.182-.33.458-.3.76.421,4.378,1.1,8.667,4.154,12.148.174.2.567.407.29.739-.235.281-.566.078-.831-.048s-.512-.3-.905-.541" transform="translate(-751.673 -498.607)" fill="#fef587"/>
      <path id="Path_3969" data-name="Path 3969" d="M584.423,894.412a30.692,30.692,0,0,0,21.72-.054c-.661.971-1.133,1.7-1.644,2.409a24.169,24.169,0,0,1-6.087,6.1,8.527,8.527,0,0,0-2.575,3.479c-.148.279-.166.705-.624.7s-.48-.427-.6-.718a7.731,7.731,0,0,0-3.022-3.779,24.766,24.766,0,0,1-7.171-8.136" transform="translate(-528.582 -808.902)" fill="#fef587"/>
      <path id="Path_3970" data-name="Path 3970" d="M858.827,53.355c.51.539.147.993.068,1.461.677-.022,1.655-.649,1.914.168.226.713-.908.782-1.448,1.083a9.382,9.382,0,0,0-3.608,3.308c-.525.864-1.072,1.672-.483,2.787a2.517,2.517,0,0,1-.079,1.874,9.536,9.536,0,0,1-.981,2.143c-1.259,2.035-2.945,3.752-4.252,5.769a8.422,8.422,0,0,1-4.447,2.928c-.48.176-1.075.6-1.536-.038a1.977,1.977,0,0,1-.407-2.277,7.22,7.22,0,0,1,4.154-3.424,1.225,1.225,0,0,0,.971-1.13,16.85,16.85,0,0,1,1.605-5.483c.589-1.117,1.276-2.151,2.716-2.258.5-.037.523-.49.674-.8a18.094,18.094,0,0,1,5.139-6.106" transform="translate(-762.769 -48.257)" fill="#fef587"/>
      <path id="Path_3971" data-name="Path 3971" d="M370.1,56.478c-.022-.55-.471-1.035-.027-1.288.379-.216.739.262,1.035.518a15.94,15.94,0,0,1,4.346,5.527c.132.3.168.651.63.677,1.57.088,2.223,1.266,2.769,2.476a20.077,20.077,0,0,1,1.394,5.2,1.224,1.224,0,0,0,.994,1.132,7.136,7.136,0,0,1,4.091,3.325,1.881,1.881,0,0,1-.315,2.268c-.535.737-1.167.314-1.718.1-2.4-.94-4.468-2.287-5.577-4.761a3.782,3.782,0,0,0-.677-.883,15.3,15.3,0,0,1-2.893-4.261,3.692,3.692,0,0,1-.1-3.358,1.054,1.054,0,0,0-.1-1.058,8.725,8.725,0,0,0-3.526-3.977c-.613-.362-1.249-.683-1.871-1.029-.192-.107-.454-.209-.391-.48.055-.237.293-.311.53-.337a2.656,2.656,0,0,1,1.4.212" transform="translate(-332.98 -49.867)" fill="#fef587"/>
    </g>
  </g>
</svg>
