<svg xmlns="http://www.w3.org/2000/svg" xmlns:xlink="http://www.w3.org/1999/xlink" width="1139.858" height="618.599" viewBox="0 0 1139.858 618.599">
  <defs>
    <clipPath id="clip-path">
      <rect id="Rectangle_21" data-name="Rectangle 21" width="286.358" height="247.993" fill="#eb506c" stroke="#fef587" stroke-width="1"/>
    </clipPath>
    <clipPath id="clip-path-2">
      <rect id="Rectangle_21-2" data-name="Rectangle 21" width="286.358" height="247.993" fill="#ed3a72" stroke="#fef587" stroke-width="1"/>
    </clipPath>
  </defs>
  <g id="Group_193" data-name="Group 193" transform="translate(-635.5 173.994)">
    <g id="Group_22" data-name="Group 22" transform="translate(849.156 -47.38)">
      <path id="Path_51" data-name="Path 51" d="M71.879.5.577,124l71.3,123.5h142.6L285.78,124,214.479.5Z" fill="#eb506c" stroke="#fef587" stroke-width="1"/>
      <g id="Group_21" data-name="Group 21">
        <g id="Group_20" data-name="Group 20" clip-path="url(#clip-path)">
          <path id="Path_52" data-name="Path 52" d="M214.48.5H71.878L.578,124l71.3,123.5h142.6l71.3-123.5Z" fill="#eb506c" stroke="#fef587" stroke-miterlimit="10" stroke-width="1"/>
        </g>
      </g>
    </g>
    <g id="Group_141" data-name="Group 141" transform="translate(1062.5 74)">
      <path id="Path_51-2" data-name="Path 51" d="M71.879.5.577,124l71.3,123.5h142.6L285.78,124,214.479.5Z" fill="#ed3a72" stroke="#fef587" stroke-width="1"/>
      <g id="Group_21-2" data-name="Group 21">
        <g id="Group_20-2" data-name="Group 20" clip-path="url(#clip-path-2)">
          <path id="Path_52-2" data-name="Path 52" d="M214.48.5H71.878L.578,124l71.3,123.5h142.6l71.3-123.5Z" fill="#ed3a72" stroke="#fef587" stroke-miterlimit="10" stroke-width="1"/>
        </g>
      </g>
    </g>
    <g id="Group_142" data-name="Group 142" transform="translate(1276 196.613)">
      <path id="Path_51-3" data-name="Path 51" d="M71.879.5.577,124l71.3,123.5h142.6L285.78,124,214.479.5Z" fill="#eb506c" stroke="#fef587" stroke-width="1"/>
      <g id="Group_21-3" data-name="Group 21">
        <g id="Group_20-3" data-name="Group 20" clip-path="url(#clip-path)">
          <path id="Path_52-3" data-name="Path 52" d="M214.48.5H71.878L.578,124l71.3,123.5h142.6l71.3-123.5Z" fill="#eb506c" stroke="#fef587" stroke-miterlimit="10" stroke-width="1"/>
        </g>
      </g>
    </g>
    <g id="Group_143" data-name="Group 143" transform="translate(635.5 -171.377)">
      <path id="Path_51-4" data-name="Path 51" d="M71.879.5.577,124l71.3,123.5h142.6L285.78,124,214.479.5Z" fill="#ed3a72" stroke="#fef587" stroke-width="1"/>
      <g id="Group_21-4" data-name="Group 21">
        <g id="Group_20-4" data-name="Group 20" clip-path="url(#clip-path-2)">
          <path id="Path_52-4" data-name="Path 52" d="M214.48.5H71.878L.578,124l71.3,123.5h142.6l71.3-123.5Z" fill="#ed3a72" stroke="#fef587" stroke-miterlimit="10" stroke-width="1"/>
        </g>
      </g>
    </g>
    <g id="Group_144" data-name="Group 144" transform="translate(1061.5 -173.377)">
      <path id="Path_51-5" data-name="Path 51" d="M71.879.5.577,124l71.3,123.5h142.6L285.78,124,214.479.5Z" fill="#eb506c" stroke="#fef587" stroke-width="1"/>
      <g id="Group_21-5" data-name="Group 21">
        <g id="Group_20-5" data-name="Group 20" clip-path="url(#clip-path)">
          <path id="Path_52-5" data-name="Path 52" d="M214.48.5H71.878L.578,124l71.3,123.5h142.6l71.3-123.5Z" fill="#eb506c" stroke="#fef587" stroke-miterlimit="10" stroke-width="1"/>
        </g>
      </g>
    </g>
    <g id="Group_145" data-name="Group 145" transform="translate(1276 -49.996)">
      <path id="Path_51-6" data-name="Path 51" d="M71.879.5.577,124l71.3,123.5h142.6L285.78,124,214.479.5Z" fill="#eb506c" stroke="#fef587" stroke-width="1"/>
      <g id="Group_21-6" data-name="Group 21">
        <g id="Group_20-6" data-name="Group 20" clip-path="url(#clip-path)">
          <path id="Path_52-6" data-name="Path 52" d="M214.48.5H71.878L.578,124l71.3,123.5h142.6l71.3-123.5Z" fill="#eb506c" stroke="#fef587" stroke-miterlimit="10" stroke-width="1"/>
        </g>
      </g>
    </g>
    <g id="Group_146" data-name="Group 146" transform="translate(1489 -173.993)">
      <path id="Path_51-7" data-name="Path 51" d="M71.879.5.577,124l71.3,123.5h142.6L285.78,124,214.479.5Z" fill="#ed3a72" stroke="#fef587" stroke-width="1"/>
      <g id="Group_21-7" data-name="Group 21">
        <g id="Group_20-7" data-name="Group 20" clip-path="url(#clip-path-2)">
          <path id="Path_52-7" data-name="Path 52" d="M214.48.5H71.878L.578,124l71.3,123.5h142.6l71.3-123.5Z" fill="#ed3a72" stroke="#fef587" stroke-miterlimit="10" stroke-width="1"/>
        </g>
      </g>
    </g>
  </g>
</svg>
